<?xml version="1.0" encoding="UTF-8" standalone="no"?>
<svg
   xmlns:dc="http://purl.org/dc/elements/1.1/"
   xmlns:cc="http://creativecommons.org/ns#"
   xmlns:rdf="http://www.w3.org/1999/02/22-rdf-syntax-ns#"
   xmlns:svg="http://www.w3.org/2000/svg"
   xmlns="http://www.w3.org/2000/svg"
   version="1.1"
   id="svg3475"
   viewBox="0 0 744.09448819 1052.3622047"
   height="297mm"
   width="210mm">
  <defs
     id="defs3477" />
  <metadata
     id="metadata3480">
    <rdf:RDF>
      <cc:Work
         rdf:about="">
        <dc:format>image/svg+xml</dc:format>
        <dc:type
           rdf:resource="http://purl.org/dc/dcmitype/StillImage" />
        <dc:title></dc:title>
      </cc:Work>
    </rdf:RDF>
  </metadata>
  <g
     id="layer1">
    <g
       transform="matrix(1.25,0,0,-1.25,187.7242,405.10551)"
       id="g3354">
      <path
         id="path3356"
         style="fill:none;stroke:#000000;stroke-width:3.50600004;stroke-linecap:butt;stroke-linejoin:miter;stroke-miterlimit:10;stroke-dasharray:none;stroke-opacity:1"
         d="m 0,0 c -9.028,0 -16.374,7.345 -16.374,16.373 l 0,69.929 c 0,9.028 7.346,16.373 16.374,16.373 l 69.927,0 c 9.029,0 16.374,-7.345 16.374,-16.373 l 0,-69.929 C 86.301,7.345 78.956,0 69.927,0 L 0,0 Z" />
    </g>
    <g
       transform="matrix(1.25,0,0,-1.25,191.50345,391.52389)"
       id="g3394">
      <path
         id="path3396"
         style="fill:#000000;fill-opacity:1;fill-rule:evenodd;stroke:none"
         d="m 0,0 c 1.88,0.02 3.767,0.133 5.641,0.026 1.203,-0.063 1.729,0.393 2.172,1.456 7.419,17.662 14.813,35.338 22.383,52.946 1.157,2.692 1.352,4.944 0.102,7.629 -1.715,3.682 -2.992,7.57 -4.537,11.337 -0.511,1.245 -1.176,2.456 -1.923,3.584 -2.216,3.346 -6.572,4.566 -10.26,2.945 -2.343,-1.034 -3.192,-3.101 -3.479,-5.398 -0.154,-1.241 -0.62,-1.577 -1.777,-1.501 -1.243,0.086 -2.5,0.023 -4.021,0.023 l 0,4.239 c 0,2.146 0.066,4.291 -0.026,6.435 -0.049,1.119 0.346,1.584 1.419,1.783 1.666,0.309 3.322,0.669 4.977,1.027 l -14.781,0 c -5.331,0 -9.655,-4.321 -9.655,-9.654 l 0,-73.094 c 0,-5.333 4.324,-9.654 9.655,-9.654 L 0,-5.871 0,0 Z" />
    </g>
    <g
       transform="matrix(1.25,0,0,-1.25,277.73395,283.35989)"
       id="g3398">
      <path
         id="path3400"
         style="fill:#ff9900;fill-opacity:1;fill-rule:evenodd;stroke:none"
         d="m 0,0 -48.421,0 c 3.618,-0.699 6.645,-2.417 8.591,-5.625 1.456,-2.398 2.797,-4.91 3.824,-7.513 9.364,-23.806 18.668,-47.638 27.922,-71.483 0.571,-1.465 1.259,-2.021 2.821,-1.888 1.659,0.145 3.34,-0.003 5.015,-0.022 l 0,-5.871 0.248,0 c 5.331,0 9.655,4.321 9.655,9.654 l 0,73.094 C 9.655,-4.321 5.331,0 0,0" />
    </g>
    <g
       transform="matrix(1.25,0,0,-1.25,215.13808,391.56664)"
       id="g3402">
      <path
         id="path3404"
         style="fill:#000000;fill-opacity:1;fill-rule:evenodd;stroke:none"
         d="m 0,0 10.28,0 0,-5.837 15.693,0 0,5.966 9.59,0 C 29.95,14.707 24.428,29.044 18.751,43.782 12.407,28.969 6.267,14.631 0,0" />
    </g>
  </g>
</svg>
