<?xml version="1.0" encoding="utf-8"?>
<!-- Generator: Adobe Illustrator 21.0.0, SVG Export Plug-In . SVG Version: 6.00 Build 0)  -->
<!DOCTYPE svg PUBLIC "-//W3C//DTD SVG 1.1//EN" "http://www.w3.org/Graphics/SVG/1.1/DTD/svg11.dtd">
<svg version="1.1" id="Layer_1" xmlns="http://www.w3.org/2000/svg" xmlns:xlink="http://www.w3.org/1999/xlink" x="0px" y="0px"
	 viewBox="0 0 400 400" enable-background="new 0 0 400 400" xml:space="preserve">
<path fill="#232323" d="M345.4,111.7l-0.1,0c-5.8-1.7-11.5-4.1-17.1-6.9c-5.6-2.9-11-6.3-16.3-9.9c-5.3-3.6-10.4-7.6-15.3-11.7
	c-2.5-2.1-4.9-4.2-7.3-6.3c-0.7-0.7-1.5-1.3-2.2-2c0,0,0,0,0,0c1-4-1.4-8.1-5.4-9.2l-0.1,0c-2.4-0.6-5.1-1-7.8-0.9
	c-2.7,0.1-5.5,0.6-8,1.6c-2.5,1-4.8,2.4-6.7,3.9c-1.9,1.6-3.6,3.3-5,5.1c-2.9,3.6-5,7.3-6.7,11.1c-1.8,3.8-3.1,7.6-4.3,11.4
	c-2.4,7.7-4,15.4-5.2,23.1c-0.3,1.9-0.6,3.9-0.8,5.8c-10.3-3.7-21.9-5.6-34-5.6c-13.1,0-25.5,2.3-36.5,6.6c-0.2-1.5-0.5-3-0.7-4.5
	c-0.8-4.6-1.8-9.3-3.1-13.9c11.8-2.6,25.4-4,40.4-4c11,0,21.3,0.7,30.8,2.2l1.7,0.3l0.2-1.7c0.6-4.2,1.4-7.8,2.6-11.1l0.7-1.9
	l-1.9-0.4c-10.3-2-21.4-2.9-34.1-2.9c-17.4,0-32.3,1.8-45.2,5.6c-1.5-3.2-3.2-6.5-5.4-9.6c-2.1-3-4.8-5.9-8.4-8.3
	c-0.9-0.5-1.9-1.1-2.8-1.6c-1-0.4-2.1-0.9-3.1-1.2c-1.1-0.3-2.2-0.6-3.3-0.8c-1.1-0.1-2.3-0.2-3.4-0.3c-0.4,0-0.8,0-1.2,0
	c-3.9,0.4-6.8,3.7-6.8,7.6c-4.8,3.7-9.8,7.3-14.9,10.7c-5.5,3.6-11,7-16.7,10.1c-2.8,1.5-5.7,3-8.6,4.3c-2.9,1.3-5.8,2.5-8.8,3.4
	c-2.9,0.9-5.9,1.7-8.7,2c-2.8,0.4-5.6,0.3-7.8-0.3c-0.1,0-0.3-0.1-0.4-0.1c-3.2-0.6-6.3,1.6-6.9,4.8c-0.6,3.2,1.6,6.3,4.8,6.9l0.1,0
	c4.3,0.8,8.3,0.4,12-0.3c3.7-0.7,7.2-1.9,10.5-3.2c3.3-1.3,6.5-2.8,9.6-4.4c3.1-1.6,6-3.3,8.9-5.2c5.8-3.6,11.3-7.5,16.7-11.6
	c4.6-3.6,9.1-7.2,13.5-11.1c1.4,1,3.2,1.5,5.1,1.3l0,0c1.7-0.2,3.3,0.1,5.1,1c1.8,0.9,3.6,2.4,5.3,4.3c1.7,1.9,3.3,4.2,4.7,6.6
	c1.4,2.4,2.7,5.1,3.9,7.7c2.3,5.4,4.3,11.1,5.9,17c0.6,2.1,1.1,4.1,1.6,6.2c-4.5,2.4-8.7,5.1-12.5,8.2c-12.2,10.1-20,23.3-22.9,38.7
	c-1.3,0.1-2.7,0.2-4,0.3c0.2,3.3-0.1,6.9,1.7,9.7c-2.8-0.1-5.2,0.9-6.9,2c-0.1-0.1-0.1-0.2-0.2-0.2l-0.3-0.3
	c-4-3.3-9.6,0.8-11.3,2.2l-0.6,0.5l-1.7,3.6c0.1-21.8,5.9-41.7,16.7-56.9c6.4-9,14.4-16.5,23.3-21.7c0,0,2-1.3,6.1-3l1.5-0.6
	l-0.6-1.5c-1.3-3.3-2.7-6.4-4.1-9.3l-0.8-1.5l-1.5,0.8c-4.5,2.4-8.7,5.1-12.5,8.1c-17.1,13.8-29.1,33.7-34.7,57.7
	c-1.9,8.2-3,16.2-3.2,23.8c-0.3,11.7-3.4,16.4-3.4,16.5l-0.3,0.4l0,0.5c0.2,7.3,4.7,44.3,5.2,47.8c0.7,4.5,5.3,10.1,9.6,10.1
	c0.4,0,0.8-0.1,1.2-0.2c0.7,2.8,2.4,4.4,3.8,4.9c0.9,0.4,6.1,2.7,9.7,3.8c1.2,0.4,2.3,0.5,3.2,0.5c3.5,0,5.4-1.8,5.6-2.1l0.6-0.6
	l0.1-0.4c2.4,0.6,6,0.6,10.2-2.3c1.9-1.3,2.9-4.8,3.4-9.2c0.5,1.1,1,2.3,1.6,3.4c7.8,16.6,24.3,45.9,47.8,55.5l5.8,2.4l0.9-6.2
	c0.9-5.8,2.6-11,4.9-14.2l3.4-4.8l-5.3-2.5c-4.4-2.1-7.2-6.6-7.2-11.4c0-1.1,0.1-2.1,0.4-3.2c7.8,2.8,16.6,2.8,24.5,0
	c0.3,1,0.4,2.1,0.4,3.2c0,4.8-2.8,9.3-7.2,11.4l-5.3,2.5l3.4,4.8c2.2,3.2,4,8.3,4.9,14.2l0.9,6.2l5.8-2.4
	c23.5-9.6,40.1-38.9,47.8-55.5c0.5-1.1,1-2.3,1.6-3.4c0.4,4.4,1.4,7.9,3.4,9.2c4.2,2.8,7.8,2.8,10.2,2.3l0.1,0.4l0.6,0.6
	c0.3,0.3,2.2,2.1,5.6,2.1c1,0,2-0.1,3.2-0.5c3.6-1.1,8.8-3.4,9.7-3.8c1.4-0.6,3.1-2.1,3.8-4.9c0.4,0.1,0.8,0.2,1.2,0.2
	c4.3,0,8.9-5.6,9.6-10.1c0.5-3.5,5-40.4,5.2-47.8l0-0.5l-0.3-0.4c0,0-3.1-4.8-3.4-16.5c-0.2-7.6-1.3-15.6-3.2-23.8
	c-5.6-24-17.6-43.9-34.7-57.7c-6.5-5.2-14.2-9.5-23-12.8c0.9-2,1.8-3.9,2.9-5.8c1.7-3,3.6-5.8,5.7-8c2.1-2.2,4.4-3.8,6.5-4.4
	c2.1-0.6,4.2-0.5,6.7,0.4c0.2,0.1,0.4,0.1,0.6,0.2c1.1,0.3,2.3,0.3,3.3,0.1c0.8,0.8,1.6,1.6,2.4,2.4c2.4,2.4,4.8,4.7,7.2,6.9
	c4.9,4.5,10,8.9,15.3,13c5.3,4.1,10.9,7.9,16.8,11.4c5.9,3.4,12.2,6.5,18.9,8.8c0.1,0,0.2,0.1,0.3,0.1c3.1,0.9,6.4-0.9,7.3-4
	C350.3,115.9,348.5,112.6,345.4,111.7z M247.5,122.9c0.9-3.9,2-7.8,3.1-11.6c10.9,3.1,16,6.4,16.1,6.5c8.8,5.1,16.8,12.6,23.2,21.6
	c10.8,15.2,16.6,35.2,16.7,57l-1.7-3.7l-0.6-0.5c-1.6-1.3-7.2-5.4-11.3-2.1l-0.3,0.3c-0.1,0.1-0.1,0.1-0.2,0.2c-1.6-1-3.9-2-6.5-2
	c0.4-3.1,0.8-6.3,1.2-9.3c-0.4-0.2-0.6-0.4-0.8-0.4c-1.1-0.1-2.1-0.2-3.2-0.2c-2.9-15.5-10.7-28.7-22.9-38.7
	c-4.4-3.6-9.3-6.7-14.6-9.3C246.3,128,246.9,125.4,247.5,122.9z M160.2,141.5c0.1,0.5,0.2,1.1,0.3,1.6l0,0.1c0.3,1.9,2.1,3.3,4,3.1
	c2.1-0.1,3.7-2,3.5-4.1c-0.1-1.6-0.2-3.1-0.4-4.6c9.7-4.2,21.4-6.6,35.3-6.6c12.7,0,23.7,2.1,32.9,5.6c-0.2,2.5-0.4,5-0.5,7.6
	c-0.1,2.1,1.4,4,3.5,4.2c2.2,0.3,4.3-1.3,4.5-3.5l0-0.1c0.2-1.4,0.4-2.9,0.6-4.4c15.8,8.7,25.2,22.5,28.9,37.6
	c-18.8-0.7-37.6-0.9-56.3,3c-6.2,1.3-12.4,2.4-18.8,1.3c-19.1-3.4-38.1-7.1-57.7-5.1c-2.3,0.2-4.7,0.4-7.1,0.6
	C136.7,163.4,145.5,150.2,160.2,141.5z M118.6,269.8c-0.3,0-0.8-0.1-1.3-0.2c-3-0.9-7.7-2.9-8.8-3.4c-0.1-0.1-0.1-0.3-0.2-0.6
	c-0.4-1.9-0.9-4.4-1-5.2c0-3,0.1-24.1-5.8-53l4.9-10.4c0.7-0.5,1.6-1,2.3-1.3c1.1,2.4,4,10.8,6.8,36.9
	C118.2,257.4,118.6,266.7,118.6,269.8C118.6,269.8,118.6,269.8,118.6,269.8z M257,261.2c-10.7,22.9-24,39.9-37.2,47.8
	c-0.7-2.7-1.6-5.2-2.6-7.4c5.2-4.2,8.3-10.6,8.3-17.5c0-4.4-1.3-8.6-3.7-12.3l-2.4-3.7l-4,2.1c-3.9,2-8,3-12.4,3
	c-4.4,0-8.6-1-12.4-3l-4-2.1l-2.4,3.7c-2.4,3.7-3.7,7.9-3.7,12.3c0,6.8,3.2,13.2,8.3,17.5c-1,2.2-1.9,4.7-2.6,7.4
	c-23-13.6-42.4-52.1-50.6-85.4c0-0.2-0.1-0.5-0.1-0.8c4.8,6,11.7,9.4,20.6,9.7c6.3,0.2,12.8,0.3,18.8-1.2c9.5-2.3,15-9.6,18.4-18.5
	c1.7-4.4,3.2-8.9,4.9-13.4c1-2.7,2.7-4.1,5.9-4c3.1,0.2,4.2,1.7,5.1,4.4c1.7,5.2,3.4,10.3,5.6,15.3c4.4,9.8,11.5,16.6,22.7,17.5
	c5.2,0.4,10.5,0.6,15.6-0.4c5-0.9,10.3-2.6,14.3-5.5c1.1-0.8,2-1.6,2.9-2.5C267.1,236.5,262.6,249.4,257,261.2z M298.7,260.4
	c-0.1,0.8-0.6,3.3-1,5.2c-0.1,0.3-0.1,0.5-0.2,0.6c-1.1,0.5-5.7,2.5-8.8,3.4c-0.5,0.2-0.9,0.2-1.3,0.2c0-3.3,0.4-12.7,3-37.2
	c2.8-26.4,5.8-34.7,6.8-36.9c0.6,0.2,1.5,0.7,2.3,1.3l4.9,10.4C298.6,236.3,298.6,257.4,298.7,260.4z"/>
</svg>
