<?xml version="1.0" encoding="utf-8"?>
<!-- Generator: Adobe Illustrator 21.0.0, SVG Export Plug-In . SVG Version: 6.00 Build 0)  -->
<!DOCTYPE svg PUBLIC "-//W3C//DTD SVG 1.1//EN" "http://www.w3.org/Graphics/SVG/1.1/DTD/svg11.dtd">
<svg version="1.1" id="Layer_1" xmlns="http://www.w3.org/2000/svg" xmlns:xlink="http://www.w3.org/1999/xlink" x="0px" y="0px"
	 viewBox="0 0 500 125" enable-background="new 0 0 500 125" xml:space="preserve">
<g>
	<g>
		<path fill="#F4F4F4" d="M67.2,68.7c0,2-1.1,3-3.4,3H45.1c-1.5,0-2.2,0.7-2.2,2v20.5c0,2-1.1,3-3.4,3H26.6c-2.2,0-3.4-1-3.4-3V40.8
			c0-3.5,1.4-6.5,4.3-9.1c2.8-2.6,6.3-3.8,10.3-3.8h26.1c2.2,0,3.4,1,3.4,3v11.4c0,2-1.1,3-3.4,3H45.1c-1.5,0-2.2,0.7-2.2,2v5
			c0,1.3,0.7,2,2.2,2h18.8c2.2,0,3.4,1,3.4,3V68.7z"/>
		<path fill="#F4F4F4" d="M119.9,30.9v53.3c0,3.6-1.4,6.6-4.3,9.1c-2.8,2.5-6.3,3.8-10.3,3.8H87.1c-4,0-7.5-1.3-10.3-3.8
			c-2.8-2.5-4.3-5.6-4.3-9.1V30.9c0-2,1.1-3,3.4-3h12.9c2.2,0,3.4,1,3.4,3v46.8c0,1.3,0.7,2,2.2,2h3.7c1.5,0,2.2-0.7,2.2-2V30.9
			c0-2,1.1-3,3.4-3h12.9C118.8,27.9,119.9,28.9,119.9,30.9z"/>
		<path fill="#F4F4F4" d="M125.3,94.1V40.8c0-3.5,1.4-6.5,4.3-9.1c2.8-2.6,6.3-3.8,10.3-3.8H158c4,0,7.5,1.3,10.3,3.8
			c2.8,2.6,4.3,5.6,4.3,9.1v53.3c0,2-1.1,3-3.4,3h-12.9c-2.2,0-3.4-1-3.4-3V47.3c0-1.3-0.7-2-2.2-2h-3.7c-1.5,0-2.2,0.7-2.2,2v46.8
			c0,2-1.1,3-3.4,3h-12.9C126.4,97.1,125.3,96.1,125.3,94.1z"/>
		<path fill="#F4F4F4" d="M214.2,94.1c0,2-1.1,3-3.4,3h-18.3c-4,0-7.5-1.3-10.3-3.8c-2.8-2.5-4.3-5.6-4.3-9.1V40.8
			c0-3.5,1.4-6.5,4.3-9.1c2.8-2.6,6.3-3.8,10.3-3.8h18.3c2.2,0,3.4,1,3.4,3v11.4c0,2-1.1,3-3.4,3h-11.1c-1.5,0-2.2,0.7-2.2,2v30.4
			c0,1.3,0.7,2,2.2,2h11.1c2.2,0,3.4,1,3.4,3V94.1z"/>
		<path fill="#F4F4F4" d="M266.9,94.1c0,2-1.1,3-3.4,3h-12.9c-2.2,0-3.4-1-3.4-3V81.7c0-1.3-0.7-2-2.2-2h-3.7c-1.5,0-2.2,0.7-2.2,2
			v12.4c0,2-1.1,3-3.4,3h-12.9c-2.2,0-3.4-1-3.4-3V35.4c0-2.1,0.8-3.8,2.5-5.3c1.6-1.5,3.6-2.2,5.9-2.2h30.5c2.3,0,4.3,0.7,5.9,2.2
			c1.6,1.5,2.5,3.2,2.5,5.3V94.1z M247.3,65.9V47.3c0-1.3-0.7-2-2.2-2h-3.7c-1.5,0-2.2,0.7-2.2,2v18.6c0,1.3,0.7,2,2.2,2h3.7
			C246.6,67.9,247.3,67.2,247.3,65.9z"/>
		<path fill="#F4F4F4" d="M318.8,42.3c0,2-1.1,3-3.4,3h-7.9c-1.5,0-2.2,0.7-2.2,2v46.8c0,2-1.1,3-3.4,3H289c-2.2,0-3.4-1-3.4-3V47.3
			c0-1.3-0.7-2-2.2-2h-7.8c-2.2,0-3.4-1-3.4-3V30.9c0-2,1.1-3,3.4-3h39.8c2.2,0,3.4,1,3.4,3V42.3z"/>
		<path fill="#F4F4F4" d="M371.4,94.1c0,2-1.1,3-3.4,3h-12.9c-2.2,0-3.4-1-3.4-3v-19c0-1.3-0.7-2-2.2-2h-3.7c-1.5,0-2.2,0.7-2.2,2
			v19c0,2-1.1,3-3.4,3h-12.9c-2.2,0-3.4-1-3.4-3V30.9c0-2,1.1-3,3.4-3h29.4c4,0,7.5,1.3,10.3,3.8c2.8,2.6,4.3,5.6,4.3,9.1V55
			c0,2.1-0.8,3.8-2.5,5.3c-1.6,1.5-3.6,2.2-5.9,2.2c2.3,0,4.3,0.7,5.9,2.2c1.6,1.5,2.5,3.2,2.5,5.3V94.1z M351.8,54.8v-7.6
			c0-1.3-0.7-2-2.2-2h-3.7c-1.5,0-2.2,0.7-2.2,2v7.6c0,1.3,0.7,2,2.2,2h3.7C351.1,56.8,351.8,56.2,351.8,54.8z"/>
		<path fill="#F4F4F4" d="M424.1,84.2c0,3.6-1.4,6.6-4.3,9.1c-2.8,2.5-6.3,3.8-10.3,3.8h-18.2c-4,0-7.5-1.3-10.3-3.8
			c-2.8-2.5-4.3-5.6-4.3-9.1V40.8c0-3.5,1.4-6.5,4.3-9.1c2.8-2.6,6.3-3.8,10.3-3.8h18.2c4,0,7.5,1.3,10.3,3.8
			c2.8,2.6,4.3,5.6,4.3,9.1V84.2z M404.5,77.7V47.3c0-1.3-0.7-2-2.2-2h-3.7c-1.5,0-2.2,0.7-2.2,2v30.4c0,1.3,0.7,2,2.2,2h3.7
			C403.7,79.7,404.5,79,404.5,77.7z"/>
		<path fill="#F4F4F4" d="M429.4,94.1V40.8c0-3.5,1.4-6.5,4.3-9.1c2.8-2.6,6.3-3.8,10.3-3.8h18.2c4,0,7.5,1.3,10.3,3.8
			c2.8,2.6,4.3,5.6,4.3,9.1v53.3c0,2-1.1,3-3.4,3h-12.9c-2.2,0-3.4-1-3.4-3V47.3c0-1.3-0.7-2-2.2-2h-3.7c-1.5,0-2.2,0.7-2.2,2v46.8
			c0,2-1.1,3-3.4,3h-12.9C430.5,97.1,429.4,96.1,429.4,94.1z"/>
	</g>
</g>
</svg>
