<?xml version="1.0" encoding="utf-8"?>
<!-- Generator: Adobe Illustrator 21.0.0, SVG Export Plug-In . SVG Version: 6.00 Build 0)  -->
<!DOCTYPE svg PUBLIC "-//W3C//DTD SVG 1.1//EN" "http://www.w3.org/Graphics/SVG/1.1/DTD/svg11.dtd">
<svg version="1.1" id="Layer_1" xmlns="http://www.w3.org/2000/svg" xmlns:xlink="http://www.w3.org/1999/xlink" x="0px" y="0px"
	 viewBox="0 0 800 800" enable-background="new 0 0 800 800" xml:space="preserve">
<path fill="#F4F4F4" d="M696.8,251l-0.3-0.1c-11.6-3.4-23-8.2-34.2-13.8c-11.1-5.9-22-12.5-32.5-19.7c-10.5-7.3-20.7-15.1-30.6-23.3
	c-5-4.1-9.8-8.3-14.6-12.6c-1.5-1.3-2.9-2.6-4.4-4c0,0,0,0,0-0.1c2.1-8-2.8-16.2-10.8-18.3l-0.2,0c-4.9-1.3-10.2-2-15.6-1.8
	c-5.4,0.2-10.9,1.3-15.9,3.3c-5,2-9.5,4.7-13.4,7.8c-3.9,3.1-7.2,6.6-10.1,10.1c-5.7,7.1-10,14.6-13.5,22.2
	c-3.5,7.6-6.3,15.2-8.7,22.8c-4.7,15.3-7.9,30.7-10.4,46.1c-0.6,3.9-1.2,7.8-1.7,11.7c-20.7-7.4-43.7-11.3-67.9-11.3
	c-26.2,0-51.1,4.6-73.1,13.2c-0.5-3-0.9-6-1.5-9.1c-1.6-9.3-3.6-18.5-6.2-27.7c23.7-5.3,50.7-7.9,80.7-7.9c21.9,0,42.7,1.5,61.7,4.4
	l3.4,0.5l0.5-3.4c1.1-8.4,2.9-15.7,5.3-22.3l1.4-3.7l-3.9-0.7c-20.5-3.9-42.9-5.8-68.3-5.8c-34.9,0-64.6,3.7-90.5,11.1
	c-2.9-6.5-6.4-12.9-10.9-19.2c-4.3-5.9-9.6-11.8-16.7-16.5c-1.9-1.1-3.7-2.2-5.7-3.2c-2.1-0.9-4.1-1.7-6.3-2.5
	c-2.2-0.6-4.4-1.1-6.7-1.6c-2.3-0.2-4.5-0.4-6.8-0.6c-0.8,0-1.7,0-2.5,0.1c-7.8,0.8-13.6,7.5-13.5,15.2
	c-9.5,7.4-19.6,14.6-29.7,21.4c-10.9,7.2-22,14.1-33.5,20.2c-5.7,3.1-11.5,5.9-17.3,8.5c-5.8,2.6-11.7,4.9-17.6,6.8
	c-5.9,1.9-11.8,3.3-17.5,4.1c-5.7,0.7-11.1,0.6-15.6-0.5c-0.3-0.1-0.6-0.1-0.9-0.2c-6.4-1.1-12.6,3.2-13.7,9.6
	c-1.1,6.4,3.2,12.6,9.6,13.7l0.1,0c8.6,1.5,16.6,0.9,24-0.5c7.4-1.5,14.4-3.7,21-6.3c6.6-2.6,13-5.6,19.1-8.8
	c6.1-3.2,12.1-6.7,17.9-10.3c11.6-7.2,22.7-15.1,33.4-23.3c9.2-7.1,18.2-14.4,27-22.1c2.9,2,6.4,3,10.1,2.6l0.1,0
	c3.4-0.3,6.6,0.1,10.2,1.9c3.5,1.8,7.2,4.8,10.6,8.7c3.4,3.8,6.5,8.4,9.4,13.2c2.8,4.9,5.4,10.1,7.8,15.5
	c4.7,10.8,8.6,22.2,11.8,33.9c1.2,4.1,2.2,8.3,3.3,12.5c-9,4.7-17.4,10.2-25,16.5c-21.4,17.6-36.1,40.1-43.3,66.2
	c-3.8,0.3-7.6,0.6-11.5,0.9l-10.9,0.9l0.8,10.9c0.1,1.2,0.1,2.6,0.2,4c0.2,4.6,0.4,11,3,17c-1,0.5-1.9,1-2.8,1.5
	c-0.1-0.2-0.3-0.3-0.4-0.5l-0.7-0.6c-8.1-6.5-19.3,1.7-22.5,4.4l-1.2,1l-3.4,7.2c0.2-43.6,11.8-83.4,33.4-113.8
	c12.8-18.1,28.9-33,46.6-43.3c0,0,4-2.6,12.1-6l3-1.3l-1.2-3.1c-2.6-6.6-5.3-12.7-8.3-18.6l-1.5-3l-3,1.6
	c-9.1,4.7-17.5,10.2-25,16.3c-34.2,27.5-58.2,67.4-69.3,115.4c-3.8,16.3-6,32.3-6.4,47.6c-0.7,23.4-6.8,32.9-6.8,33l-0.6,0.9l0,1.1
	c0.4,14.6,9.3,88.7,10.4,95.6c1.3,8.9,10.6,20.2,19.2,20.2c0.9,0,1.7-0.1,2.4-0.3c1.4,5.7,4.7,8.7,7.6,9.8
	c1.8,0.8,12.2,5.4,19.4,7.6c2.4,0.7,4.5,1,6.4,1c6.9,0,10.8-3.7,11.3-4.2l1.2-1.3l0.2-0.8c4.8,1.2,12.1,1.2,20.4-4.5
	c3.9-2.6,5.9-9.6,6.7-18.4c1,2.3,2.1,4.6,3.1,6.8c15.5,33.2,48.6,91.8,95.7,110.9l11.6,4.7l1.8-12.4c1.7-11.7,5.3-22,9.7-28.3
	l6.7-9.5l-10.5-5c-8.8-4.2-14.4-13.1-14.4-22.8c0-2.1,0.3-4.3,0.8-6.3c15.7,5.5,33.2,5.5,48.9,0c0.5,2,0.8,4.2,0.8,6.3
	c0,9.7-5.7,18.6-14.4,22.8l-10.5,5l6.7,9.5c4.4,6.3,8,16.6,9.7,28.3l1.8,12.4l11.6-4.7c47.1-19.2,80.2-77.7,95.7-110.9
	c1.1-2.3,2.1-4.5,3.1-6.8c0.9,8.8,2.9,15.7,6.7,18.4c8.3,5.7,15.6,5.7,20.4,4.5l0.2,0.8l1.2,1.3c0.5,0.5,4.4,4.2,11.3,4.2
	c1.9,0,4.1-0.3,6.4-1c7.2-2.2,17.6-6.8,19.4-7.6c2.9-1.1,6.2-4.2,7.6-9.8c0.7,0.2,1.5,0.3,2.4,0.3c8.6,0,17.9-11.3,19.2-20.2
	c1-6.9,10-80.9,10.4-95.6l0-1.1l-0.6-0.9c-0.1-0.1-6.1-9.6-6.8-33c-0.4-15.2-2.6-31.2-6.4-47.6c-11.1-47.9-35.1-87.8-69.3-115.4
	c-13-10.4-28.4-19-46.1-25.5c1.8-4,3.7-7.8,5.7-11.5c3.4-6,7.2-11.6,11.4-16c4.2-4.5,8.8-7.5,13-8.7c4.3-1.2,8.5-0.9,13.4,0.8
	c0.4,0.1,0.7,0.2,1.1,0.3c2.3,0.6,4.5,0.6,6.7,0.2c1.6,1.6,3.2,3.2,4.8,4.8c4.7,4.7,9.5,9.4,14.4,13.9c9.8,9.1,20,17.8,30.6,26
	c10.7,8.2,21.8,15.9,33.6,22.9c11.9,6.8,24.3,12.9,37.7,17.6c0.2,0.1,0.4,0.1,0.6,0.2c6.3,1.8,12.9-1.8,14.7-8.1
	C706.7,259.4,703.1,252.8,696.8,251z M500.9,273.3c1.9-7.9,3.9-15.6,6.3-23.3c21.9,6.3,32,12.9,32.3,13
	c17.6,10.2,33.6,25.2,46.4,43.2c21.7,30.5,33.2,70.5,33.4,113.9l-3.4-7.3l-1.2-1c-3.2-2.7-14.5-10.9-22.6-4.3l-0.7,0.6
	c-0.1,0.1-0.2,0.2-0.3,0.4c-0.7-0.4-1.4-0.8-2.2-1.2c0-0.3,0.1-0.5,0.1-0.7l0-0.1c0.7-5.1,1.4-10.2,2-15.2l0.5-3.9l1-7.5l-6.7-3.6
	c-0.1,0-0.1-0.1-0.2-0.1c-0.9-0.5-2.9-1.8-5.9-2l-2-0.1c-2.6-0.2-5.2-0.4-7.8-0.5c-7.2-26.1-21.8-48.6-43.3-66.2
	c-8.7-7.2-18.5-13.4-29.1-18.6C498.7,283.5,499.8,278.4,500.9,273.3z M326.5,310.5c0.2,1.1,0.4,2.2,0.6,3.3l0,0.3
	c0.7,3.8,4.1,6.5,8,6.3c4.2-0.3,7.4-3.9,7.1-8.1c-0.2-3.1-0.5-6.2-0.8-9.2c19.4-8.4,42.8-13.2,70.6-13.2c25.5,0,47.3,4.1,65.8,11.3
	c-0.4,5-0.8,10-1.1,15.1c-0.2,4.2,2.9,7.9,7.1,8.5c4.4,0.6,8.5-2.6,9.1-7l0-0.2c0.4-2.9,0.8-5.8,1.2-8.7
	c27.7,15.2,45.6,38.3,54.5,64c-10.8-0.4-21.9-0.7-32.9-0.7c-30.4,0-55.4,2.2-78.6,7c-8.7,1.8-16.6,3.3-24.4,3.3
	c-3.2,0-6.2-0.2-9.1-0.8c-2.5-0.4-5-0.9-7.5-1.3c-28.4-5-57.7-10.2-87.5-10.2c-8,0-15.9,0.4-23.5,1.1c-3.2,0.3-6.4,0.6-9.6,0.9
	C284.3,347.5,301,325.6,326.5,310.5z M286.4,381.9c7.5-0.8,14.9-1.1,22.4-1.1c31.4,0,62.2,6,93,11.4c3.7,0.7,7.4,0.9,11,0.9
	c9,0,17.9-1.7,26.6-3.5c25.3-5.2,50.8-6.7,76.3-6.7c16.8,0,33.5,0.7,50.3,1.4c4.3,0.2,8.6,0.5,12.9,0.9c0.4,0,0.8,0.4,1.7,0.9
	c-0.8,6.3-1.7,12.7-2.5,19.2c-0.1,0.7-0.1,1.6-0.5,1.9c-11.7,10-9.5,25.2-14.4,37.8c-5.3,13.7-10.7,27.7-22.7,36.3
	c-8.1,5.8-18.7,9.1-28.7,11c-5.4,1-11.1,1.4-16.7,1.4c-4.8,0-9.7-0.3-14.4-0.7c-22.4-1.8-36.6-15.3-45.3-35
	c-4.4-9.9-7.8-20.2-11.2-30.6c-1.7-5.3-4-8.4-10.2-8.8c-0.4,0-0.7,0-1.1,0c-5.7,0-8.8,2.9-10.7,7.9c-3.3,8.9-6.3,17.9-9.7,26.8
	c-6.8,17.8-17.8,32.4-36.8,37c-8.3,2-17.2,2.6-26,2.6c-3.9,0-7.8-0.1-11.6-0.3c-25.9-1-43.2-14.7-51.5-39.1
	c-4.3-12.6-7.5-25.6-11.3-38.4c-0.5-1.7-0.7-4.4-1.9-5c-10.9-5.4-9.3-15.8-10-25C258.5,384.1,272.4,383.3,286.4,381.9z M243.2,567.2
	c-0.7,0-1.5-0.1-2.6-0.4c-6.1-1.8-15.3-5.9-17.5-6.9c-0.1-0.2-0.2-0.6-0.4-1.1c-0.9-3.8-1.7-8.7-2-10.4c0.1-6,0.3-48.1-11.5-106
	l9.8-20.8c1.4-1,3.2-2,4.5-2.5c2.2,4.8,8.1,21.7,13.7,73.8C242.4,542.3,243.1,560.9,243.2,567.2
	C243.2,567.2,243.2,567.2,243.2,567.2z M520,550c-21.4,45.8-48.1,79.8-74.5,95.6c-1.4-5.4-3.2-10.3-5.3-14.7
	c10.4-8.4,16.7-21.3,16.7-34.9c0-8.7-2.5-17.2-7.3-24.6l-4.9-7.5l-7.9,4.1c-7.7,4-16.1,6.1-24.8,6.1c-8.7,0-17.1-2-24.8-6.1
	l-7.9-4.1l-4.9,7.5c-4.8,7.3-7.3,15.8-7.3,24.6c0,13.6,6.3,26.5,16.7,34.9c-2.1,4.4-3.9,9.4-5.3,14.8c-42-24.8-77.8-90.9-96.3-152.7
	c9.9,6.7,21.9,10.3,35.5,10.9c4.8,0.2,8.5,0.3,12.1,0.3c11.3,0,20.4-0.9,28.6-2.9c20.3-4.9,35.3-19.7,44.5-43.8
	c2-5.1,3.8-10.3,5.6-15.4c1.4-3.8,2.7-7.7,4.2-11.5c0.1-0.3,0.2-0.6,0.3-0.8c0,0,0,0,0,0c0.1,0,0.3,0,0.4,0c0.1,0.3,0.3,0.7,0.4,1.2
	c3.3,10.3,6.9,21.2,11.6,31.6c5.3,11.9,12.2,21.4,20.6,28.3c9.5,7.7,20.9,12.2,33.9,13.2c5.9,0.5,10.8,0.7,15.3,0.7
	c7,0,13.1-0.5,18.8-1.6c10.8-2.1,20.1-5.2,27.6-9.4C535.8,512.6,528.5,531.8,520,550z M603.4,548.3c-0.3,1.7-1.2,6.7-2,10.4
	c-0.1,0.6-0.3,0.9-0.4,1.1c-2.2,1-11.5,5.1-17.5,6.9c-1,0.3-1.9,0.4-2.5,0.4c0-6.7,0.8-25.5,6-74.5c5.7-52.8,11.6-69.5,13.6-73.8
	c1.2,0.5,3,1.5,4.6,2.6l9.8,20.8C603.1,500.2,603.3,542.4,603.4,548.3z"/>
</svg>
