<?xml version="1.0" encoding="utf-8"?>
<!-- Generator: Adobe Illustrator 21.0.0, SVG Export Plug-In . SVG Version: 6.00 Build 0)  -->
<!DOCTYPE svg PUBLIC "-//W3C//DTD SVG 1.1//EN" "http://www.w3.org/Graphics/SVG/1.1/DTD/svg11.dtd">
<svg version="1.1" id="Layer_1" xmlns="http://www.w3.org/2000/svg" xmlns:xlink="http://www.w3.org/1999/xlink" x="0px" y="0px"
	 viewBox="0 0 1500 360" enable-background="new 0 0 1500 360" xml:space="preserve">
<g>
	<path fill="#9E5C26" d="M227.7,260.2l2.7,4.1c2.6,4,4,8.6,4,13.4c0,7.4-3.4,14.4-9.1,19c1.1,2.4,2.1,5.1,2.9,8
		c14.4-8.6,28.9-27.1,40.6-52c6-12.9,11-26.9,14.4-40.2c-1,1-2,1.9-3.2,2.8c-4.4,3.1-10.2,4.9-15.6,6c-5.5,1-11.3,0.9-17,0.4
		c-12.2-1-19.9-8.3-24.7-19.1c-2.4-5.4-4.3-11-6.1-16.6c-0.9-2.9-2.2-4.6-5.6-4.8c-0.4,0-0.7,0-1.1,0v84.6c4.8,0,9.3-1.1,13.5-3.3
		L227.7,260.2z"/>
	<path fill="#9E5C26" d="M224.8,165.4c20.3-4.2,40.8-4,61.3-3.2c-4-16.4-14.3-31.4-31.5-40.9c-0.2,1.6-0.5,3.2-0.7,4.8l0,0.1
		c-0.3,2.4-2.5,4.1-5,3.8c-2.3-0.3-4-2.3-3.9-4.6c0.1-2.8,0.3-5.5,0.6-8.2c-10-3.9-21.9-6.1-35.8-6.1v56.3
		C214.9,167.3,219.9,166.4,224.8,165.4z"/>
	<g>
		<path fill="#CB7A29" d="M214,111c1.1,0,2.1,0.1,3.2,0.1C216.2,111.1,215.1,111,214,111z"/>
		<path fill="#CB7A29" d="M217.3,111.2c1.1,0.1,2.3,0.2,3.4,0.3C219.5,111.3,218.4,111.2,217.3,111.2z"/>
		<path fill="#CB7A29" d="M219.1,166.4c-1.2,0.2-2.4,0.4-3.6,0.5C216.7,166.8,217.9,166.6,219.1,166.4z"/>
		<path fill="#CB7A29" d="M219.3,166.4c1.2-0.2,2.3-0.4,3.5-0.6C221.6,166,220.5,166.2,219.3,166.4z"/>
		<path fill="#CB7A29" d="M224.3,111.8L224.3,111.8c-1.1-0.1-2.1-0.2-3.2-0.3C222.1,111.6,223.2,111.7,224.3,111.8z"/>
		<path fill="#CB7A29" d="M209.9,110.9c1.1,0,2.3,0,3.4,0.1C212.1,111,211,110.9,209.9,110.9z"/>
		<path fill="#CB7A29" d="M209.9,181.2c0.2,0,0.3,0,0.5,0c-3.1,0-4.8,1.6-5.9,4.3c-1.8,4.9-3.5,9.8-5.3,14.6
			c-3.7,9.7-9.7,17.6-20,20.2c-6.6,1.6-13.7,1.5-20.5,1.3c-9.7-0.4-17.2-4-22.4-10.6c0,0.3,0.1,0.6,0.1,0.8
			c9,36.2,30.1,78.2,55.2,93c0.8-2.9,1.7-5.6,2.9-8c-5.7-4.6-9.1-11.6-9.1-19c0-4.8,1.4-9.4,4-13.4l2.7-4.1l4.3,2.2
			c4.2,2.2,8.8,3.3,13.5,3.3V181.2z"/>
		<path fill="#CB7A29" d="M204.3,166.7c3.8,0.7,7.6,0.6,11.2,0.2c-1.9,0.2-3.7,0.3-5.6,0.3v-56.3c-15.1,0-27.9,2.7-38.4,7.2
			c0.2,1.7,0.3,3.3,0.4,5c0.2,2.3-1.6,4.3-3.8,4.4c-2.1,0.2-4-1.3-4.4-3.4l0-0.1c-0.1-0.6-0.2-1.2-0.3-1.8
			c-16,9.5-25.7,23.9-29.6,39.6c2.6-0.2,5.1-0.4,7.7-0.7C162.7,159,183.5,163.1,204.3,166.7z"/>
		<path fill="#CB7A29" d="M227.8,211.4C227.8,211.4,227.8,211.4,227.8,211.4C227.8,211.4,227.8,211.4,227.8,211.4z"/>
		<path fill="#CB7A29" d="M224.8,165.4c-0.5,0.1-1.1,0.2-1.6,0.3C223.7,165.6,224.2,165.5,224.8,165.4z"/>
		<path fill="#CB7A29" d="M226.6,209.8C226.6,209.8,226.6,209.8,226.6,209.8C226.6,209.8,226.6,209.8,226.6,209.8z"/>
		<path fill="#CB7A29" d="M211.3,265.7c0.4,0,0.9-0.1,1.3-0.1l0,0C212.2,265.7,211.8,265.7,211.3,265.7z"/>
		<path fill="#CB7A29" d="M224.8,165.4c1.1-0.2,2.2-0.4,3.3-0.6l0,0C227,164.9,225.9,165.1,224.8,165.4z"/>
		<path fill="#CB7A29" d="M223.5,204.5C223.5,204.5,223.5,204.5,223.5,204.5C223.5,204.5,223.5,204.5,223.5,204.5z"/>
		<path fill="#CB7A29" d="M224.4,206.4C224.4,206.4,224.4,206.3,224.4,206.4C224.4,206.3,224.4,206.4,224.4,206.4z"/>
		<path fill="#CB7A29" d="M225.5,208.1C225.5,208.1,225.5,208.1,225.5,208.1C225.5,208.1,225.5,208.1,225.5,208.1z"/>
	</g>
	<path fill="#232323" d="M364.9,89.9l-0.1,0c-6.3-1.8-12.5-4.4-18.6-7.5c-6.1-3.2-12-6.8-17.7-10.7c-5.7-4-11.3-8.2-16.7-12.7
		c-2.7-2.2-5.4-4.5-8-6.9c-0.8-0.7-1.6-1.4-2.4-2.2c0,0,0,0,0,0c1.1-4.4-1.5-8.8-5.9-10l-0.1,0c-2.7-0.7-5.5-1.1-8.5-1
		c-2.9,0.1-5.9,0.7-8.7,1.8c-2.7,1.1-5.2,2.6-7.3,4.3c-2.1,1.7-3.9,3.6-5.5,5.5c-3.1,3.9-5.4,8-7.3,12.1c-1.9,4.1-3.4,8.3-4.7,12.4
		c-2.6,8.3-4.3,16.7-5.7,25.1c-0.3,2.1-0.6,4.2-0.9,6.4c-11.3-4-23.8-6.1-37-6.1c-14.3,0-27.8,2.5-39.8,7.2
		c-0.2-1.6-0.5-3.3-0.8-4.9c-0.9-5-2-10.1-3.4-15.1c12.9-2.9,27.6-4.3,44-4.3c11.9,0,23.2,0.8,33.6,2.4l1.8,0.3l0.3-1.8
		c0.6-4.6,1.6-8.5,2.9-12.1l0.7-2l-2.1-0.4c-11.2-2.1-23.4-3.2-37.2-3.2c-19,0-35.2,2-49.3,6.1c-1.6-3.5-3.5-7-5.9-10.5
		c-2.3-3.2-5.2-6.4-9.1-9c-1-0.6-2-1.2-3.1-1.7c-1.1-0.5-2.2-0.9-3.4-1.3c-1.2-0.3-2.4-0.6-3.6-0.9c-1.2-0.1-2.5-0.2-3.7-0.3
		c-0.4,0-0.9,0-1.4,0c-4.3,0.4-7.4,4.1-7.4,8.3c-5.2,4.1-10.7,8-16.2,11.7c-5.9,3.9-12,7.7-18.2,11c-3.1,1.7-6.2,3.2-9.4,4.6
		c-3.2,1.4-6.4,2.7-9.6,3.7c-3.2,1-6.4,1.8-9.5,2.2c-3.1,0.4-6.1,0.3-8.5-0.3c-0.1,0-0.3-0.1-0.5-0.1c-3.5-0.6-6.9,1.7-7.5,5.2
		c-0.6,3.5,1.7,6.9,5.2,7.5l0.1,0c4.7,0.8,9.1,0.5,13.1-0.3c4-0.8,7.8-2,11.4-3.4c3.6-1.4,7.1-3.1,10.4-4.8c3.3-1.8,6.6-3.6,9.7-5.6
		c6.3-3.9,12.4-8.2,18.2-12.7c5-3.9,9.9-7.8,14.7-12c1.6,1.1,3.5,1.6,5.5,1.4l0,0c1.8-0.2,3.6,0.1,5.5,1.1c1.9,1,3.9,2.6,5.8,4.7
		c1.8,2.1,3.6,4.6,5.1,7.2c1.5,2.7,2.9,5.5,4.2,8.4c2.6,5.9,4.7,12.1,6.4,18.5c0.6,2.2,1.2,4.5,1.8,6.8c-4.9,2.6-9.5,5.6-13.6,9
		c-13.3,11-21.8,25.3-25,42.2c-1.4,0.1-2.9,0.2-4.4,0.3c0.3,3.6-0.1,7.5,1.8,10.5c-3.1-0.1-5.7,1-7.6,2.2c-0.1-0.1-0.2-0.2-0.2-0.3
		l-0.4-0.3c-4.4-3.6-10.5,0.9-12.3,2.4l-0.6,0.5L97,182c0.1-23.7,6.4-45.4,18.2-62c7-9.8,15.7-18,25.4-23.6c0,0,2.2-1.4,6.6-3.3
		l1.6-0.7l-0.6-1.7c-1.4-3.6-2.9-6.9-4.5-10.1l-0.8-1.6l-1.6,0.9c-4.9,2.6-9.5,5.6-13.6,8.9c-18.6,15-31.7,36.7-37.7,62.8
		c-2.1,8.9-3.2,17.6-3.5,25.9c-0.4,12.8-3.7,17.9-3.7,18l-0.3,0.5l0,0.6c0.2,8,5.1,48.3,5.6,52.1c0.7,4.9,5.8,11,10.5,11
		c0.5,0,0.9-0.1,1.3-0.2c0.8,3.1,2.6,4.8,4.1,5.4c1,0.4,6.7,3,10.6,4.1c1.3,0.4,2.5,0.5,3.5,0.5c3.8,0,5.9-2,6.1-2.3l0.7-0.7
		l0.1-0.4c2.6,0.6,6.6,0.6,11.1-2.5c2.1-1.4,3.2-5.2,3.7-10c0.6,1.2,1.1,2.5,1.7,3.7c8.5,18.1,26.5,50,52.1,60.4l6.3,2.6l1-6.8
		c0.9-6.4,2.9-12,5.3-15.4l3.7-5.2l-5.7-2.7c-4.8-2.3-7.8-7.1-7.8-12.4c0-1.2,0.1-2.3,0.4-3.4c8.5,3,18.1,3,26.6,0
		c0.3,1.1,0.4,2.3,0.4,3.4c0,5.3-3.1,10.1-7.8,12.4l-5.7,2.7l3.7,5.2c2.4,3.4,4.3,9.1,5.3,15.4l1,6.8l6.3-2.6
		c25.6-10.4,43.7-42.3,52.1-60.4c0.6-1.2,1.1-2.5,1.7-3.7c0.5,4.8,1.6,8.6,3.7,10c4.5,3.1,8.5,3.1,11.1,2.5l0.1,0.4l0.7,0.7
		c0.3,0.3,2.4,2.3,6.1,2.3c1,0,2.2-0.2,3.5-0.5c3.9-1.2,9.6-3.7,10.6-4.1c1.6-0.6,3.4-2.3,4.2-5.4c0.4,0.1,0.8,0.2,1.3,0.2
		c4.7,0,9.7-6.2,10.5-11c0.6-3.8,5.4-44.1,5.6-52.1l0-0.6l-0.3-0.5c0-0.1-3.3-5.2-3.7-18c-0.2-8.3-1.4-17-3.5-25.9
		c-6.1-26.1-19.1-47.8-37.7-62.8c-7.1-5.7-15.5-10.3-25.1-13.9c1-2.2,2-4.3,3.1-6.3c1.8-3.3,3.9-6.3,6.2-8.7
		c2.3-2.4,4.8-4.1,7.1-4.8c2.3-0.7,4.6-0.5,7.3,0.4c0.2,0.1,0.4,0.1,0.6,0.2c1.2,0.3,2.5,0.3,3.6,0.1c0.9,0.9,1.7,1.8,2.6,2.6
		c2.6,2.6,5.2,5.1,7.9,7.6c5.3,4.9,10.9,9.7,16.7,14.2c5.8,4.4,11.9,8.6,18.3,12.5c6.5,3.7,13.3,7,20.6,9.6c0.1,0,0.2,0.1,0.3,0.1
		c3.4,1,7-1,8-4.4C370.3,94.4,368.4,90.9,364.9,89.9z M258.3,102c1-4.3,2.1-8.5,3.4-12.7c11.9,3.4,17.4,7,17.6,7.1
		c9.6,5.6,18.3,13.7,25.3,23.5c11.8,16.6,18.1,38.4,18.2,62l-1.9-4l-0.6-0.5c-1.8-1.5-7.9-5.9-12.3-2.3l-0.4,0.4
		c-0.1,0.1-0.1,0.1-0.2,0.2c-1.8-1.1-4.2-2.1-7-2.2c0.5-3.4,0.9-6.8,1.3-10.1c-0.5-0.3-0.7-0.5-0.9-0.5c-1.2-0.1-2.3-0.2-3.5-0.3
		c-3.2-16.8-11.7-31.2-25-42.2c-4.8-3.9-10.1-7.3-15.9-10.1C257,107.6,257.6,104.8,258.3,102z M163.3,122.3c0.1,0.6,0.2,1.2,0.3,1.8
		l0,0.1c0.4,2.1,2.2,3.6,4.4,3.4c2.3-0.2,4-2.1,3.8-4.4c-0.1-1.7-0.3-3.4-0.4-5c10.6-4.6,23.3-7.2,38.4-7.2
		c13.9,0,25.8,2.2,35.8,6.1c-0.2,2.7-0.4,5.4-0.6,8.2c-0.1,2.3,1.6,4.3,3.9,4.6c2.4,0.3,4.6-1.4,5-3.8l0-0.1
		c0.2-1.6,0.4-3.2,0.7-4.8c17.2,9.5,27.5,24.5,31.5,40.9c-20.5-0.8-41-0.9-61.3,3.2c-6.7,1.4-13.5,2.6-20.5,1.4
		c-20.8-3.7-41.5-7.7-62.8-5.6c-2.6,0.3-5.1,0.5-7.7,0.7C137.6,146.2,147.3,131.7,163.3,122.3z M117.9,262.1c-0.4,0-0.8-0.1-1.4-0.2
		c-3.3-1-8.4-3.2-9.5-3.7c-0.1-0.1-0.1-0.3-0.2-0.6c-0.5-2.1-0.9-4.8-1.1-5.7c0-3.3,0.1-26.2-6.3-57.7l5.3-11.3
		c0.8-0.6,1.8-1.1,2.5-1.4c1.2,2.6,4.4,11.8,7.4,40.2C117.5,248.5,117.9,258.6,117.9,262.1C117.9,262.1,117.9,262.1,117.9,262.1z
		 M268.7,252.7c-11.7,24.9-26.2,43.5-40.6,52c-0.8-2.9-1.7-5.6-2.9-8c5.7-4.6,9.1-11.6,9.1-19c0-4.8-1.4-9.4-4-13.4l-2.7-4.1
		l-4.3,2.2c-4.2,2.2-8.8,3.3-13.5,3.3c-4.8,0-9.3-1.1-13.5-3.3l-4.3-2.2l-2.7,4.1c-2.6,4-4,8.6-4,13.4c0,7.4,3.4,14.4,9.1,19
		c-1.1,2.4-2.1,5.1-2.9,8c-25.1-14.8-46.1-56.8-55.2-93c0-0.3-0.1-0.6-0.1-0.8c5.2,6.6,12.7,10.2,22.4,10.6
		c6.8,0.3,13.9,0.3,20.5-1.3c10.4-2.5,16.3-10.5,20-20.2c1.8-4.8,3.5-9.7,5.3-14.6c1.1-2.9,2.9-4.5,6.4-4.3c3.4,0.2,4.6,1.9,5.6,4.8
		c1.8,5.6,3.7,11.2,6.1,16.6c4.8,10.7,12.5,18.1,24.7,19.1c5.6,0.4,11.5,0.6,17-0.4c5.4-1,11.2-2.8,15.6-6c1.2-0.8,2.2-1.8,3.2-2.8
		C279.7,225.8,274.7,239.8,268.7,252.7z M314.1,251.8c-0.2,0.9-0.6,3.6-1.1,5.7c-0.1,0.3-0.1,0.5-0.2,0.6c-1.2,0.5-6.2,2.8-9.5,3.7
		c-0.6,0.2-1,0.2-1.4,0.2c0-3.6,0.4-13.9,3.3-40.5c3.1-28.8,6.3-37.8,7.4-40.2c0.7,0.3,1.6,0.8,2.5,1.4l5.3,11.3
		C313.9,225.6,314,248.5,314.1,251.8z"/>
</g>
<g>
	<path fill="#232323" d="M514.9,191.6c0,4.4-2.5,6.5-7.4,6.5h-41.2c-3.3,0-4.9,1.5-4.9,4.4v44.9c0,4.4-2.5,6.5-7.4,6.5h-28.2
		c-4.9,0-7.4-2.2-7.4-6.5V130.5c0-7.7,3.1-14.4,9.3-20c6.2-5.6,13.7-8.4,22.6-8.4h57.2c4.9,0,7.4,2.2,7.4,6.5v25.1
		c0,4.4-2.5,6.5-7.4,6.5h-41.2c-3.3,0-4.9,1.5-4.9,4.4v10.9c0,2.9,1.6,4.4,4.9,4.4h41.2c4.9,0,7.4,2.2,7.4,6.5V191.6z"/>
	<path fill="#232323" d="M630.4,108.7v116.9c0,7.8-3.1,14.5-9.3,20.1c-6.2,5.5-13.7,8.3-22.6,8.3h-40c-8.8,0-16.4-2.8-22.6-8.3
		c-6.2-5.5-9.3-12.2-9.3-20.1V108.7c0-4.4,2.5-6.5,7.4-6.5h28.2c4.9,0,7.4,2.2,7.4,6.5v102.7c0,2.9,1.6,4.4,4.9,4.4h8.1
		c3.3,0,4.9-1.5,4.9-4.4V108.7c0-4.4,2.5-6.5,7.4-6.5h28.2C628,102.2,630.4,104.4,630.4,108.7z"/>
	<path fill="#232323" d="M642.2,247.4V130.5c0-7.7,3.1-14.4,9.3-20c6.2-5.6,13.7-8.4,22.6-8.4h40c8.8,0,16.4,2.8,22.6,8.4
		c6.2,5.6,9.3,12.2,9.3,20v116.9c0,4.4-2.5,6.5-7.4,6.5h-28.2c-4.9,0-7.4-2.2-7.4-6.5V144.7c0-2.9-1.6-4.4-4.9-4.4h-8.1
		c-3.3,0-4.9,1.5-4.9,4.4v102.7c0,4.4-2.5,6.5-7.4,6.5h-28.2C644.7,253.9,642.2,251.8,642.2,247.4z"/>
	<path fill="#232323" d="M837.2,247.4c0,4.4-2.5,6.5-7.4,6.5h-40.2c-8.8,0-16.4-2.8-22.6-8.3c-6.2-5.5-9.3-12.2-9.3-20.1v-95.1
		c0-7.7,3.1-14.4,9.3-20c6.2-5.6,13.7-8.4,22.6-8.4h40.2c4.9,0,7.4,2.2,7.4,6.5v25.1c0,4.4-2.5,6.5-7.4,6.5h-24.3
		c-3.3,0-4.9,1.5-4.9,4.4v66.7c0,2.9,1.6,4.4,4.9,4.4h24.3c4.9,0,7.4,2.2,7.4,6.5V247.4z"/>
	<path fill="#232323" d="M952.8,247.4c0,4.4-2.5,6.5-7.4,6.5h-28.2c-4.9,0-7.4-2.2-7.4-6.5v-27.3c0-2.9-1.6-4.4-4.9-4.4h-8.1
		c-3.3,0-4.9,1.5-4.9,4.4v27.3c0,4.4-2.5,6.5-7.4,6.5h-28.2c-4.9,0-7.4-2.2-7.4-6.5V118.5c0-4.5,1.8-8.4,5.4-11.6
		c3.6-3.2,7.9-4.8,13-4.8h67c5.1,0,9.4,1.6,13,4.8c3.6,3.2,5.4,7.1,5.4,11.6V247.4z M909.8,185.5v-40.7c0-2.9-1.6-4.4-4.9-4.4h-8.1
		c-3.3,0-4.9,1.5-4.9,4.4v40.7c0,2.9,1.6,4.4,4.9,4.4h8.1C908.2,189.8,909.8,188.4,909.8,185.5z"/>
	<path fill="#232323" d="M1066.6,133.8c0,4.4-2.5,6.5-7.4,6.5h-17.4c-3.3,0-4.9,1.5-4.9,4.4v102.7c0,4.4-2.5,6.5-7.4,6.5h-28.2
		c-4.9,0-7.4-2.2-7.4-6.6V144.7c0-2.9-1.6-4.4-4.9-4.4h-17.2c-4.9,0-7.4-2.2-7.4-6.5v-25.1c0-4.4,2.5-6.5,7.4-6.5h87.3
		c4.9,0,7.4,2.2,7.4,6.5V133.8z"/>
	<path fill="#232323" d="M1181.9,247.4c0,4.4-2.5,6.5-7.4,6.5h-28.2c-4.9,0-7.4-2.2-7.4-6.5v-41.6c0-2.9-1.6-4.4-4.9-4.4h-8.1
		c-3.3,0-4.9,1.5-4.9,4.4v41.6c0,4.4-2.5,6.5-7.4,6.5h-28.2c-4.9,0-7.4-2.2-7.4-6.5V108.7c0-4.4,2.5-6.5,7.4-6.5h64.5
		c8.8,0,16.4,2.8,22.6,8.4c6.2,5.6,9.3,12.2,9.3,20v31.2c0,4.5-1.8,8.4-5.4,11.6c-3.6,3.2-7.9,4.8-13,4.8c5.1,0,9.4,1.6,13,4.8
		c3.6,3.2,5.4,7.1,5.4,11.6V247.4z M1139,161.3v-16.6c0-2.9-1.6-4.4-4.9-4.4h-8.1c-3.3,0-4.9,1.5-4.9,4.4v16.6
		c0,2.9,1.6,4.4,4.9,4.4h8.1C1137.3,165.6,1139,164.2,1139,161.3z"/>
	<path fill="#232323" d="M1297.4,225.6c0,7.8-3.1,14.5-9.3,20.1c-6.2,5.5-13.7,8.3-22.6,8.3h-40c-8.8,0-16.4-2.8-22.6-8.3
		c-6.2-5.5-9.3-12.2-9.3-20.1v-95.1c0-7.7,3.1-14.4,9.3-20c6.2-5.6,13.7-8.4,22.6-8.4h40c8.8,0,16.4,2.8,22.6,8.4
		c6.2,5.6,9.3,12.2,9.3,20V225.6z M1254.5,211.4v-66.7c0-2.9-1.6-4.4-4.9-4.4h-8.1c-3.3,0-4.9,1.5-4.9,4.4v66.7
		c0,2.9,1.6,4.4,4.9,4.4h8.1C1252.9,215.8,1254.5,214.3,1254.5,211.4z"/>
	<path fill="#232323" d="M1309.2,247.4V130.5c0-7.7,3.1-14.4,9.3-20c6.2-5.6,13.7-8.4,22.6-8.4h40c8.8,0,16.4,2.8,22.6,8.4
		c6.2,5.6,9.3,12.2,9.3,20v116.9c0,4.4-2.5,6.5-7.4,6.5h-28.2c-4.9,0-7.4-2.2-7.4-6.5V144.7c0-2.9-1.6-4.4-4.9-4.4h-8.1
		c-3.3,0-4.9,1.5-4.9,4.4v102.7c0,4.4-2.5,6.5-7.4,6.5h-28.2C1311.7,253.9,1309.2,251.8,1309.2,247.4z"/>
</g>
</svg>
