<?xml version="1.0" encoding="utf-8"?>
<!-- Generator: Adobe Illustrator 21.0.0, SVG Export Plug-In . SVG Version: 6.00 Build 0)  -->
<!DOCTYPE svg PUBLIC "-//W3C//DTD SVG 1.1//EN" "http://www.w3.org/Graphics/SVG/1.1/DTD/svg11.dtd">
<svg version="1.1" id="Layer_1" xmlns="http://www.w3.org/2000/svg" xmlns:xlink="http://www.w3.org/1999/xlink" x="0px" y="0px"
	 viewBox="0 0 400 400" enable-background="new 0 0 400 400" xml:space="preserve">
<path fill="#F4F4F4" d="M351.4,111.7l-0.1,0c-5.8-1.7-11.5-4.1-17.1-6.9c-5.6-2.9-11-6.3-16.3-9.9c-5.3-3.6-10.4-7.6-15.3-11.7
	c-2.5-2.1-4.9-4.2-7.3-6.3c-0.7-0.7-1.5-1.3-2.2-2c0,0,0,0,0,0c1-4-1.4-8.1-5.4-9.2l-0.1,0c-2.4-0.6-5.1-1-7.8-0.9
	c-2.7,0.1-5.5,0.6-8,1.6c-2.5,1-4.8,2.4-6.7,3.9c-1.9,1.6-3.6,3.3-5,5.1c-2.9,3.6-5,7.3-6.7,11.1c-1.8,3.8-3.1,7.6-4.3,11.4
	c-2.4,7.7-4,15.4-5.2,23.1c-0.3,1.9-0.6,3.9-0.8,5.8c-10.3-3.7-21.9-5.6-34-5.6c-13.1,0-25.5,2.3-36.5,6.6c-0.2-1.5-0.5-3-0.7-4.5
	c-0.8-4.6-1.8-9.3-3.1-13.9c11.8-2.6,25.4-4,40.4-4c11,0,21.3,0.7,30.8,2.2l1.7,0.3l0.2-1.7c0.6-4.2,1.4-7.8,2.6-11.1l0.7-1.9
	l-1.9-0.4c-10.3-2-21.4-2.9-34.1-2.9c-17.4,0-32.3,1.8-45.2,5.6c-1.5-3.2-3.2-6.5-5.4-9.6c-2.1-3-4.8-5.9-8.4-8.3
	c-0.9-0.5-1.9-1.1-2.8-1.6c-1-0.4-2.1-0.9-3.1-1.2c-1.1-0.3-2.2-0.6-3.3-0.8c-1.1-0.1-2.3-0.2-3.4-0.3c-0.4,0-0.8,0-1.2,0
	c-3.9,0.4-6.8,3.7-6.8,7.6c-4.8,3.7-9.8,7.3-14.9,10.7c-5.5,3.6-11,7-16.7,10.1c-2.8,1.5-5.7,3-8.6,4.3c-2.9,1.3-5.8,2.5-8.8,3.4
	c-2.9,0.9-5.9,1.7-8.7,2c-2.8,0.4-5.6,0.3-7.8-0.3c-0.1,0-0.3-0.1-0.4-0.1c-3.2-0.6-6.3,1.6-6.9,4.8c-0.6,3.2,1.6,6.3,4.8,6.9l0.1,0
	c4.3,0.8,8.3,0.4,12-0.3c3.7-0.7,7.2-1.9,10.5-3.2c3.3-1.3,6.5-2.8,9.6-4.4c3.1-1.6,6-3.3,8.9-5.2c5.8-3.6,11.3-7.5,16.7-11.6
	c4.6-3.6,9.1-7.2,13.5-11.1c1.4,1,3.2,1.5,5.1,1.3l0,0c1.7-0.2,3.3,0.1,5.1,1c1.8,0.9,3.6,2.4,5.3,4.3c1.7,1.9,3.3,4.2,4.7,6.6
	c1.4,2.4,2.7,5.1,3.9,7.7c2.3,5.4,4.3,11.1,5.9,17c0.6,2.1,1.1,4.1,1.6,6.2c-4.5,2.4-8.7,5.1-12.5,8.2c-10.7,8.8-18,20.1-21.6,33.1
	c-1.9,0.1-3.8,0.3-5.8,0.4l-5.5,0.4l0.4,5.5c0,0.6,0.1,1.3,0.1,2c0.1,2.3,0.2,5.5,1.5,8.5c-0.5,0.2-1,0.5-1.4,0.8
	c-0.1-0.1-0.1-0.2-0.2-0.2l-0.3-0.3c-4-3.3-9.6,0.8-11.3,2.2l-0.6,0.5l-1.7,3.6c0.1-21.8,5.9-41.7,16.7-56.9
	c6.4-9,14.4-16.5,23.3-21.7c0,0,2-1.3,6.1-3l1.5-0.6l-0.6-1.5c-1.3-3.3-2.7-6.4-4.1-9.3l-0.8-1.5l-1.5,0.8
	c-4.5,2.4-8.7,5.1-12.5,8.1c-17.1,13.8-29.1,33.7-34.7,57.7c-1.9,8.2-3,16.2-3.2,23.8c-0.3,11.7-3.4,16.4-3.4,16.5l-0.3,0.4l0,0.5
	c0.2,7.3,4.7,44.3,5.2,47.8c0.7,4.5,5.3,10.1,9.6,10.1c0.4,0,0.8-0.1,1.2-0.2c0.7,2.8,2.4,4.4,3.8,4.9c0.9,0.4,6.1,2.7,9.7,3.8
	c1.2,0.4,2.3,0.5,3.2,0.5c3.5,0,5.4-1.8,5.6-2.1l0.6-0.6l0.1-0.4c2.4,0.6,6,0.6,10.2-2.3c1.9-1.3,2.9-4.8,3.4-9.2
	c0.5,1.1,1,2.3,1.6,3.4c7.8,16.6,24.3,45.9,47.8,55.5l5.8,2.4l0.9-6.2c0.9-5.8,2.6-11,4.9-14.2l3.4-4.8l-5.3-2.5
	c-4.4-2.1-7.2-6.6-7.2-11.4c0-1.1,0.1-2.1,0.4-3.2c7.8,2.8,16.6,2.8,24.5,0c0.3,1,0.4,2.1,0.4,3.2c0,4.8-2.8,9.3-7.2,11.4l-5.3,2.5
	l3.4,4.8c2.2,3.2,4,8.3,4.9,14.2l0.9,6.2l5.8-2.4c23.5-9.6,40.1-38.9,47.8-55.5c0.5-1.1,1-2.3,1.6-3.4c0.4,4.4,1.4,7.9,3.4,9.2
	c4.2,2.8,7.8,2.8,10.2,2.3l0.1,0.4l0.6,0.6c0.3,0.3,2.2,2.1,5.6,2.1c1,0,2-0.1,3.2-0.5c3.6-1.1,8.8-3.4,9.7-3.8
	c1.4-0.6,3.1-2.1,3.8-4.9c0.4,0.1,0.8,0.2,1.2,0.2c4.3,0,8.9-5.6,9.6-10.1c0.5-3.5,5-40.4,5.2-47.8l0-0.5l-0.3-0.4
	c0,0-3.1-4.8-3.4-16.5c-0.2-7.6-1.3-15.6-3.2-23.8c-5.6-24-17.6-43.9-34.7-57.7c-6.5-5.2-14.2-9.5-23-12.8c0.9-2,1.8-3.9,2.9-5.8
	c1.7-3,3.6-5.8,5.7-8c2.1-2.2,4.4-3.8,6.5-4.4c2.1-0.6,4.2-0.5,6.7,0.4c0.2,0.1,0.4,0.1,0.6,0.2c1.1,0.3,2.3,0.3,3.3,0.1
	c0.8,0.8,1.6,1.6,2.4,2.4c2.4,2.4,4.8,4.7,7.2,6.9c4.9,4.5,10,8.9,15.3,13c5.3,4.1,10.9,7.9,16.8,11.4c5.9,3.4,12.2,6.5,18.9,8.8
	c0.1,0,0.2,0.1,0.3,0.1c3.1,0.9,6.4-0.9,7.3-4C356.3,115.9,354.5,112.6,351.4,111.7z M253.5,122.9c0.9-3.9,2-7.8,3.1-11.6
	c10.9,3.1,16,6.4,16.1,6.5c8.8,5.1,16.8,12.6,23.2,21.6c10.8,15.2,16.6,35.2,16.7,57l-1.7-3.7l-0.6-0.5c-1.6-1.3-7.2-5.4-11.3-2.1
	l-0.3,0.3c-0.1,0.1-0.1,0.1-0.2,0.2c-0.3-0.2-0.7-0.4-1.1-0.6c0-0.1,0-0.3,0-0.4l0,0c0.3-2.6,0.7-5.1,1-7.6l0.3-2l0.5-3.8l-3.3-1.8
	c0,0-0.1,0-0.1-0.1c-0.4-0.3-1.5-0.9-2.9-1l-1-0.1c-1.3-0.1-2.6-0.2-3.9-0.3c-3.6-13.1-10.9-24.3-21.6-33.1
	c-4.4-3.6-9.3-6.7-14.6-9.3C252.3,128,252.9,125.4,253.5,122.9z M166.2,141.5c0.1,0.5,0.2,1.1,0.3,1.6l0,0.1c0.3,1.9,2.1,3.3,4,3.1
	c2.1-0.1,3.7-2,3.5-4.1c-0.1-1.6-0.2-3.1-0.4-4.6c9.7-4.2,21.4-6.6,35.3-6.6c12.7,0,23.7,2.1,32.9,5.6c-0.2,2.5-0.4,5-0.5,7.6
	c-0.1,2.1,1.4,4,3.5,4.2c2.2,0.3,4.3-1.3,4.5-3.5l0-0.1c0.2-1.5,0.4-2.9,0.6-4.4c13.8,7.6,22.8,19.2,27.3,32
	c-5.4-0.2-11-0.3-16.5-0.3c-15.2,0-27.7,1.1-39.3,3.5c-4.4,0.9-8.3,1.6-12.2,1.6c-1.6,0-3.1-0.1-4.6-0.4c-1.2-0.2-2.5-0.4-3.7-0.7
	c-14.2-2.5-28.8-5.1-43.7-5.1c-4,0-8,0.2-11.7,0.6c-1.6,0.2-3.2,0.3-4.8,0.4C145.1,160,153.5,149,166.2,141.5z M146.2,177.2
	c3.7-0.4,7.5-0.5,11.2-0.5c15.7,0,31.1,3,46.5,5.7c1.9,0.3,3.7,0.5,5.5,0.5c4.5,0,8.9-0.8,13.3-1.7c12.7-2.6,25.4-3.4,38.2-3.4
	c8.4,0,16.8,0.3,25.2,0.7c2.1,0.1,4.3,0.3,6.4,0.4c0.2,0,0.4,0.2,0.8,0.4c-0.4,3.1-0.8,6.4-1.3,9.6c0,0.3,0,0.8-0.2,1
	c-5.8,5-4.8,12.6-7.2,18.9c-2.6,6.8-5.3,13.9-11.3,18.1c-4.1,2.9-9.4,4.5-14.3,5.5c-2.7,0.5-5.5,0.7-8.4,0.7c-2.4,0-4.8-0.1-7.2-0.3
	c-11.2-0.9-18.3-7.6-22.7-17.5c-2.2-4.9-3.9-10.1-5.6-15.3c-0.9-2.7-2-4.2-5.1-4.4c-0.2,0-0.4,0-0.5,0c-2.9,0-4.4,1.4-5.3,4
	c-1.7,4.5-3.2,9-4.9,13.4c-3.4,8.9-8.9,16.2-18.4,18.5c-4.2,1-8.6,1.3-13,1.3c-1.9,0-3.9-0.1-5.8-0.1c-12.9-0.5-21.6-7.3-25.8-19.5
	c-2.2-6.3-3.8-12.8-5.6-19.2c-0.3-0.9-0.4-2.2-1-2.5c-5.5-2.7-4.6-7.9-5-12.5C132.2,178.3,139.2,177.9,146.2,177.2z M124.6,269.8
	c-0.3,0-0.8-0.1-1.3-0.2c-3-0.9-7.7-2.9-8.8-3.4c-0.1-0.1-0.1-0.3-0.2-0.6c-0.4-1.9-0.9-4.4-1-5.2c0-3,0.1-24.1-5.8-53l4.9-10.4
	c0.7-0.5,1.6-1,2.3-1.3c1.1,2.4,4,10.8,6.8,36.9C124.2,257.4,124.6,266.7,124.6,269.8C124.6,269.8,124.6,269.8,124.6,269.8z
	 M263,261.2c-10.7,22.9-24,39.9-37.2,47.8c-0.7-2.7-1.6-5.2-2.6-7.4c5.2-4.2,8.3-10.6,8.3-17.5c0-4.4-1.3-8.6-3.7-12.3l-2.4-3.7
	l-4,2.1c-3.9,2-8,3-12.4,3c-4.4,0-8.6-1-12.4-3l-4-2.1l-2.4,3.7c-2.4,3.7-3.7,7.9-3.7,12.3c0,6.8,3.2,13.2,8.3,17.5
	c-1,2.2-1.9,4.7-2.6,7.4c-21-12.4-38.9-45.4-48.2-76.4c5,3.3,10.9,5.2,17.8,5.4c2.4,0.1,4.3,0.1,6,0.1c5.7,0,10.2-0.5,14.3-1.5
	c10.1-2.5,17.6-9.8,22.2-21.9c1-2.6,1.9-5.2,2.8-7.7c0.7-1.9,1.4-3.9,2.1-5.8c0.1-0.2,0.1-0.3,0.2-0.4c0,0,0,0,0,0
	c0.1,0,0.1,0,0.2,0c0.1,0.1,0.1,0.3,0.2,0.6c1.7,5.1,3.5,10.6,5.8,15.8c2.6,6,6.1,10.7,10.3,14.1c4.8,3.9,10.5,6.1,16.9,6.6
	c3,0.2,5.4,0.3,7.6,0.3c3.5,0,6.5-0.3,9.4-0.8c5.4-1,10-2.6,13.8-4.7C270.9,242.5,267.3,252.2,263,261.2z M304.7,260.4
	c-0.1,0.8-0.6,3.3-1,5.2c-0.1,0.3-0.1,0.5-0.2,0.6c-1.1,0.5-5.7,2.5-8.8,3.4c-0.5,0.2-0.9,0.2-1.3,0.2c0-3.3,0.4-12.7,3-37.2
	c2.8-26.4,5.8-34.7,6.8-36.9c0.6,0.2,1.5,0.7,2.3,1.3l4.9,10.4C304.6,236.3,304.6,257.4,304.7,260.4z"/>
</svg>
