<?xml version="1.0" encoding="utf-8"?>
<!-- Generator: Adobe Illustrator 21.0.0, SVG Export Plug-In . SVG Version: 6.00 Build 0)  -->
<!DOCTYPE svg PUBLIC "-//W3C//DTD SVG 1.1//EN" "http://www.w3.org/Graphics/SVG/1.1/DTD/svg11.dtd">
<svg version="1.1" id="Layer_1" xmlns="http://www.w3.org/2000/svg" xmlns:xlink="http://www.w3.org/1999/xlink" x="0px" y="0px"
	 viewBox="0 0 200 200" enable-background="new 0 0 200 200" xml:space="preserve">
<path fill="#F4F4F4" d="M178.7,59.9L178.7,59.9c-3-0.9-5.8-2.1-8.6-3.5c-2.8-1.5-5.5-3.1-8.1-4.9c-2.6-1.8-5.2-3.8-7.7-5.8
	c-1.2-1-2.5-2.1-3.7-3.2c-0.4-0.3-0.7-0.7-1.1-1c0,0,0,0,0,0c0.5-2-0.7-4.1-2.7-4.6l0,0c-1.2-0.3-2.5-0.5-3.9-0.5
	c-1.4,0-2.7,0.3-4,0.8c-1.3,0.5-2.4,1.2-3.4,2c-1,0.8-1.8,1.6-2.5,2.5c-1.4,1.8-2.5,3.7-3.4,5.5c-0.9,1.9-1.6,3.8-2.2,5.7
	c-1.2,3.8-2,7.7-2.6,11.5c-0.2,1-0.3,1.9-0.4,2.9c-5.2-1.8-10.9-2.8-17-2.8c-6.6,0-12.8,1.1-18.3,3.3c-0.1-0.8-0.2-1.5-0.4-2.3
	c-0.4-2.3-0.9-4.6-1.5-6.9c5.9-1.3,12.7-2,20.2-2c5.5,0,10.7,0.4,15.4,1.1l0.8,0.1l0.1-0.8c0.3-2.1,0.7-3.9,1.3-5.6l0.3-0.9l-1-0.2
	c-5.1-1-10.7-1.5-17.1-1.5c-8.7,0-16.2,0.9-22.6,2.8c-0.7-1.6-1.6-3.2-2.7-4.8c-1.1-1.5-2.4-3-4.2-4.1c-0.5-0.3-0.9-0.5-1.4-0.8
	c-0.5-0.2-1-0.4-1.6-0.6c-0.5-0.1-1.1-0.3-1.7-0.4c-0.6-0.1-1.1-0.1-1.7-0.1c-0.2,0-0.4,0-0.6,0c-2,0.2-3.4,1.9-3.4,3.8
	c-2.4,1.9-4.9,3.7-7.4,5.4c-2.7,1.8-5.5,3.5-8.4,5c-1.4,0.8-2.9,1.5-4.3,2.1c-1.5,0.7-2.9,1.2-4.4,1.7c-1.5,0.5-2.9,0.8-4.4,1
	c-1.4,0.2-2.8,0.1-3.9-0.1c-0.1,0-0.1,0-0.2,0c-1.6-0.3-3.1,0.8-3.4,2.4c-0.3,1.6,0.8,3.1,2.4,3.4l0,0c2.1,0.4,4.2,0.2,6-0.1
	c1.9-0.4,3.6-0.9,5.3-1.6c1.7-0.6,3.2-1.4,4.8-2.2c1.5-0.8,3-1.7,4.5-2.6c2.9-1.8,5.7-3.8,8.4-5.8c2.3-1.8,4.5-3.6,6.7-5.5
	c0.7,0.5,1.6,0.8,2.5,0.7l0,0c0.8-0.1,1.6,0,2.5,0.5c0.9,0.4,1.8,1.2,2.6,2.2c0.8,1,1.6,2.1,2.3,3.3c0.7,1.2,1.3,2.5,1.9,3.9
	c1.2,2.7,2.1,5.6,3,8.5c0.3,1,0.6,2.1,0.8,3.1c-2.3,1.2-4.3,2.6-6.2,4.1c-5.4,4.4-9,10-10.8,16.6c-0.9,0.1-1.9,0.1-2.9,0.2l-2.7,0.2
	l0.2,2.7c0,0.3,0,0.6,0,1c0,1.2,0.1,2.8,0.8,4.3c-0.3,0.1-0.5,0.2-0.7,0.4c0,0-0.1-0.1-0.1-0.1L62.5,99c-2-1.6-4.8,0.4-5.6,1.1
	l-0.3,0.2l-0.9,1.8c0.1-10.9,2.9-20.9,8.3-28.5c3.2-4.5,7.2-8.2,11.7-10.8c0,0,1-0.7,3-1.5l0.8-0.3l-0.3-0.8
	c-0.6-1.7-1.3-3.2-2.1-4.6l-0.4-0.8L76,55.3c-2.3,1.2-4.4,2.6-6.2,4.1c-8.6,6.9-14.5,16.9-17.3,28.8c-0.9,4.1-1.5,8.1-1.6,11.9
	c-0.2,5.9-1.7,8.2-1.7,8.2l-0.2,0.2l0,0.3c0.1,3.7,2.3,22.2,2.6,23.9c0.3,2.2,2.7,5,4.8,5c0.2,0,0.4,0,0.6-0.1
	c0.4,1.4,1.2,2.2,1.9,2.5c0.5,0.2,3.1,1.4,4.8,1.9c0.6,0.2,1.1,0.2,1.6,0.2c1.7,0,2.7-0.9,2.8-1.1l0.3-0.3l0.1-0.2
	c1.2,0.3,3,0.3,5.1-1.1c1-0.7,1.5-2.4,1.7-4.6c0.3,0.6,0.5,1.1,0.8,1.7c3.9,8.3,12.2,22.9,23.9,27.7l2.9,1.2l0.5-3.1
	c0.4-2.9,1.3-5.5,2.4-7.1l1.7-2.4l-2.6-1.3c-2.2-1-3.6-3.3-3.6-5.7c0-0.5,0.1-1.1,0.2-1.6c3.9,1.4,8.3,1.4,12.2,0
	c0.1,0.5,0.2,1,0.2,1.6c0,2.4-1.4,4.6-3.6,5.7l-2.6,1.3l1.7,2.4c1.1,1.6,2,4.2,2.4,7.1l0.5,3.1l2.9-1.2c11.8-4.8,20-19.4,23.9-27.7
	c0.3-0.6,0.5-1.1,0.8-1.7c0.2,2.2,0.7,3.9,1.7,4.6c2.1,1.4,3.9,1.4,5.1,1.1l0.1,0.2l0.3,0.3c0.1,0.1,1.1,1.1,2.8,1.1
	c0.5,0,1-0.1,1.6-0.2c1.8-0.5,4.4-1.7,4.8-1.9c0.7-0.3,1.5-1,1.9-2.5c0.2,0.1,0.4,0.1,0.6,0.1c2.1,0,4.5-2.8,4.8-5
	c0.3-1.7,2.5-20.2,2.6-23.9l0-0.3l-0.1-0.2c0,0-1.5-2.4-1.7-8.2c-0.1-3.8-0.6-7.8-1.6-11.9c-2.8-12-8.8-22-17.3-28.8
	c-3.2-2.6-7.1-4.7-11.5-6.4c0.4-1,0.9-2,1.4-2.9c0.8-1.5,1.8-2.9,2.9-4c1.1-1.1,2.2-1.9,3.3-2.2c1.1-0.3,2.1-0.2,3.4,0.2
	c0.1,0,0.2,0.1,0.3,0.1c0.6,0.1,1.1,0.2,1.7,0c0.4,0.4,0.8,0.8,1.2,1.2c1.2,1.2,2.4,2.3,3.6,3.5c2.5,2.3,5,4.4,7.7,6.5
	c2.7,2,5.5,4,8.4,5.7c3,1.7,6.1,3.2,9.4,4.4c0,0,0.1,0,0.1,0c1.6,0.5,3.2-0.4,3.7-2C181.2,62,180.3,60.3,178.7,59.9z M129.7,65.4
	c0.5-2,1-3.9,1.6-5.8c5.5,1.6,8,3.2,8.1,3.3c4.4,2.6,8.4,6.3,11.6,10.8c5.4,7.6,8.3,17.6,8.4,28.5l-0.9-1.8l-0.3-0.2
	c-0.8-0.7-3.6-2.7-5.7-1.1l-0.2,0.2c0,0-0.1,0.1-0.1,0.1c-0.2-0.1-0.4-0.2-0.5-0.3c0-0.1,0-0.1,0-0.2l0,0c0.2-1.3,0.3-2.6,0.5-3.8
	l0.1-1l0.2-1.9l-1.7-0.9c0,0,0,0,0,0c-0.2-0.1-0.7-0.5-1.5-0.5l-0.5,0c-0.6,0-1.3-0.1-2-0.1c-1.8-6.5-5.5-12.2-10.8-16.6
	c-2.2-1.8-4.6-3.3-7.3-4.6C129.2,68,129.4,66.7,129.7,65.4z M86.1,74.7c0,0.3,0.1,0.5,0.1,0.8l0,0.1c0.2,0.9,1,1.6,2,1.6
	c1-0.1,1.8-1,1.8-2c-0.1-0.8-0.1-1.5-0.2-2.3c4.8-2.1,10.7-3.3,17.7-3.3c6.4,0,11.8,1,16.4,2.8c-0.1,1.2-0.2,2.5-0.3,3.8
	c0,1,0.7,2,1.8,2.1c1.1,0.1,2.1-0.6,2.3-1.8l0,0c0.1-0.7,0.2-1.5,0.3-2.2c6.9,3.8,11.4,9.6,13.6,16c-2.7-0.1-5.5-0.2-8.2-0.2
	c-7.6,0-13.8,0.6-19.6,1.7c-2.2,0.4-4.1,0.8-6.1,0.8c-0.8,0-1.6-0.1-2.3-0.2c-0.6-0.1-1.2-0.2-1.9-0.3c-7.1-1.3-14.4-2.6-21.9-2.6
	c-2,0-4,0.1-5.9,0.3c-0.8,0.1-1.6,0.2-2.4,0.2C75.6,84,79.8,78.5,86.1,74.7z M76.1,92.6c1.9-0.2,3.7-0.3,5.6-0.3
	c7.8,0,15.5,1.5,23.3,2.8c0.9,0.2,1.8,0.2,2.8,0.2c2.3,0,4.5-0.4,6.7-0.9c6.3-1.3,12.7-1.7,19.1-1.7c4.2,0,8.4,0.2,12.6,0.4
	c1.1,0,2.1,0.1,3.2,0.2c0.1,0,0.2,0.1,0.4,0.2c-0.2,1.6-0.4,3.2-0.6,4.8c0,0.2,0,0.4-0.1,0.5c-2.9,2.5-2.4,6.3-3.6,9.5
	c-1.3,3.4-2.7,6.9-5.7,9.1c-2,1.4-4.7,2.3-7.2,2.7c-1.4,0.3-2.8,0.4-4.2,0.4c-1.2,0-2.4-0.1-3.6-0.2c-5.6-0.4-9.2-3.8-11.3-8.7
	c-1.1-2.5-2-5.1-2.8-7.6c-0.4-1.3-1-2.1-2.6-2.2c-0.1,0-0.2,0-0.3,0c-1.4,0-2.2,0.7-2.7,2c-0.8,2.2-1.6,4.5-2.4,6.7
	c-1.7,4.4-4.4,8.1-9.2,9.3c-2.1,0.5-4.3,0.7-6.5,0.7c-1,0-1.9,0-2.9-0.1c-6.5-0.3-10.8-3.7-12.9-9.8c-1.1-3.1-1.9-6.4-2.8-9.6
	c-0.1-0.4-0.2-1.1-0.5-1.2c-2.7-1.3-2.3-4-2.5-6.2C69.1,93.1,72.6,92.9,76.1,92.6z M65.3,138.9c-0.2,0-0.4,0-0.6-0.1
	c-1.5-0.5-3.8-1.5-4.4-1.7c0-0.1-0.1-0.1-0.1-0.3c-0.2-0.9-0.4-2.2-0.5-2.6c0-1.5,0.1-12-2.9-26.5l2.4-5.2c0.4-0.3,0.8-0.5,1.1-0.6
	c0.5,1.2,2,5.4,3.4,18.5C65.1,132.7,65.3,137.3,65.3,138.9C65.3,138.9,65.3,138.9,65.3,138.9z M134.5,134.6
	c-5.4,11.4-12,19.9-18.6,23.9c-0.4-1.3-0.8-2.6-1.3-3.7c2.6-2.1,4.2-5.3,4.2-8.7c0-2.2-0.6-4.3-1.8-6.1l-1.2-1.9l-2,1
	c-1.9,1-4,1.5-6.2,1.5c-2.2,0-4.3-0.5-6.2-1.5l-2-1l-1.2,1.9c-1.2,1.8-1.8,4-1.8,6.1c0,3.4,1.6,6.6,4.2,8.7c-0.5,1.1-1,2.3-1.3,3.7
	c-10.5-6.2-19.4-22.7-24.1-38.2c2.5,1.7,5.5,2.6,8.9,2.7c1.2,0,2.1,0.1,3,0.1c2.8,0,5.1-0.2,7.1-0.7c5.1-1.2,8.8-4.9,11.1-10.9
	c0.5-1.3,1-2.6,1.4-3.8c0.3-0.9,0.7-1.9,1-2.9c0-0.1,0.1-0.1,0.1-0.2c0,0,0,0,0,0c0,0,0.1,0,0.1,0c0,0.1,0.1,0.2,0.1,0.3
	c0.8,2.6,1.7,5.3,2.9,7.9c1.3,3,3.1,5.4,5.2,7.1c2.4,1.9,5.2,3,8.5,3.3c1.5,0.1,2.7,0.2,3.8,0.2c1.7,0,3.3-0.1,4.7-0.4
	c2.7-0.5,5-1.3,6.9-2.4C138.5,125.3,136.6,130.1,134.5,134.6z M155.3,134.2c-0.1,0.4-0.3,1.7-0.5,2.6c0,0.1-0.1,0.2-0.1,0.3
	c-0.5,0.2-2.9,1.3-4.4,1.7c-0.3,0.1-0.5,0.1-0.6,0.1c0-1.7,0.2-6.4,1.5-18.6c1.4-13.2,2.9-17.4,3.4-18.5c0.3,0.1,0.8,0.4,1.1,0.6
	l2.4,5.2C155.3,122.2,155.3,132.7,155.3,134.2z"/>
</svg>
