<?xml version="1.0" encoding="utf-8"?>
<!-- Generator: Adobe Illustrator 21.0.0, SVG Export Plug-In . SVG Version: 6.00 Build 0)  -->
<!DOCTYPE svg PUBLIC "-//W3C//DTD SVG 1.1//EN" "http://www.w3.org/Graphics/SVG/1.1/DTD/svg11.dtd">
<svg version="1.1" id="Layer_1" xmlns="http://www.w3.org/2000/svg" xmlns:xlink="http://www.w3.org/1999/xlink" x="0px" y="0px"
	 viewBox="0 0 1000 250" enable-background="new 0 0 1000 250" xml:space="preserve">
<g>
	<g>
		<path fill="#F4F4F4" d="M134.4,137.3c0,4-2.2,6-6.7,6H90.1c-3,0-4.5,1.3-4.5,4v41c0,4-2.2,6-6.7,6H53.2c-4.5,0-6.7-2-6.7-6V81.6
			c0-7,2.8-13.1,8.5-18.2c5.7-5.1,12.5-7.7,20.6-7.7h52.1c4.5,0,6.7,2,6.7,6v22.9c0,4-2.2,6-6.7,6H90.1c-3,0-4.5,1.3-4.5,4v9.9
			c0,2.7,1.5,4,4.5,4h37.6c4.5,0,6.7,2,6.7,6V137.3z"/>
		<path fill="#F4F4F4" d="M239.8,61.7v106.6c0,7.2-2.8,13.3-8.5,18.3c-5.7,5-12.5,7.6-20.6,7.6h-36.5c-8.1,0-14.9-2.5-20.6-7.6
			c-5.7-5-8.5-11.1-8.5-18.3V61.7c0-4,2.2-6,6.7-6h25.7c4.5,0,6.7,2,6.7,6v93.7c0,2.7,1.5,4,4.5,4h7.4c3,0,4.5-1.3,4.5-4V61.7
			c0-4,2.2-6,6.7-6h25.7C237.5,55.8,239.8,57.8,239.8,61.7z"/>
		<path fill="#F4F4F4" d="M250.5,188.2V81.6c0-7,2.8-13.1,8.5-18.2c5.7-5.1,12.5-7.7,20.6-7.7h36.5c8.1,0,14.9,2.6,20.6,7.7
			c5.7,5.1,8.5,11.2,8.5,18.2v106.6c0,4-2.2,6-6.7,6h-25.7c-4.5,0-6.7-2-6.7-6V94.5c0-2.7-1.5-4-4.5-4h-7.4c-3,0-4.5,1.3-4.5,4v93.7
			c0,4-2.2,6-6.7,6h-25.7C252.8,194.2,250.5,192.2,250.5,188.2z"/>
		<path fill="#F4F4F4" d="M428.4,188.2c0,4-2.2,6-6.7,6H385c-8.1,0-14.9-2.5-20.6-7.6c-5.7-5-8.5-11.1-8.5-18.3V81.6
			c0-7,2.8-13.1,8.5-18.2c5.7-5.1,12.5-7.7,20.6-7.7h36.7c4.5,0,6.7,2,6.7,6v22.9c0,4-2.2,6-6.7,6h-22.2c-3,0-4.5,1.3-4.5,4v60.9
			c0,2.7,1.5,4,4.5,4h22.2c4.5,0,6.7,2,6.7,6V188.2z"/>
		<path fill="#F4F4F4" d="M533.8,188.2c0,4-2.2,6-6.7,6h-25.7c-4.5,0-6.7-2-6.7-6v-24.9c0-2.7-1.5-4-4.5-4h-7.4c-3,0-4.5,1.3-4.5,4
			v24.9c0,4-2.2,6-6.7,6h-25.7c-4.5,0-6.7-2-6.7-6V70.7c0-4.1,1.6-7.6,4.9-10.5c3.3-2.9,7.2-4.4,11.9-4.4H517
			c4.6,0,8.6,1.5,11.9,4.4c3.3,2.9,4.9,6.4,4.9,10.5V188.2z M494.6,131.7V94.6c0-2.7-1.5-4-4.5-4h-7.4c-3,0-4.5,1.3-4.5,4v37.2
			c0,2.7,1.5,4,4.5,4h7.4C493.1,135.7,494.6,134.4,494.6,131.7z"/>
		<path fill="#F4F4F4" d="M637.6,84.6c0,4-2.2,6-6.7,6H615c-3,0-4.5,1.3-4.5,4v93.7c0,4-2.2,6-6.7,6h-25.7c-4.5,0-6.7-2-6.7-6V94.6
			c0-2.7-1.5-4-4.5-4h-15.7c-4.5,0-6.7-2-6.7-6V61.7c0-4,2.2-6,6.7-6h79.7c4.5,0,6.7,2,6.7,6V84.6z"/>
		<path fill="#F4F4F4" d="M742.8,188.2c0,4-2.2,6-6.7,6h-25.7c-4.5,0-6.7-2-6.7-6v-38c0-2.7-1.5-4-4.5-4h-7.4c-3,0-4.5,1.3-4.5,4v38
			c0,4-2.2,6-6.7,6h-25.7c-4.5,0-6.7-2-6.7-6V61.7c0-4,2.2-6,6.7-6h58.8c8.1,0,14.9,2.6,20.6,7.7c5.7,5.1,8.5,11.2,8.5,18.2v28.4
			c0,4.1-1.6,7.6-4.9,10.5c-3.3,2.9-7.2,4.4-11.9,4.4c4.6,0,8.6,1.5,11.9,4.4c3.3,2.9,4.9,6.4,4.9,10.5V188.2z M703.6,109.7V94.5
			c0-2.7-1.5-4-4.5-4h-7.4c-3,0-4.5,1.3-4.5,4v15.1c0,2.7,1.5,4,4.5,4h7.4C702.1,113.6,703.6,112.3,703.6,109.7z"/>
		<path fill="#F4F4F4" d="M848.2,168.3c0,7.2-2.8,13.3-8.5,18.3c-5.7,5-12.5,7.6-20.6,7.6h-36.5c-8.1,0-14.9-2.5-20.6-7.6
			c-5.7-5-8.5-11.1-8.5-18.3V81.6c0-7,2.8-13.1,8.5-18.2c5.7-5.1,12.5-7.7,20.6-7.7h36.5c8.1,0,14.9,2.6,20.6,7.7
			c5.7,5.1,8.5,11.2,8.5,18.2V168.3z M809,155.4V94.5c0-2.7-1.5-4-4.5-4h-7.4c-3,0-4.5,1.3-4.5,4v60.9c0,2.7,1.5,4,4.5,4h7.4
			C807.5,159.4,809,158.1,809,155.4z"/>
		<path fill="#F4F4F4" d="M858.9,188.2V81.6c0-7,2.8-13.1,8.5-18.2c5.7-5.1,12.5-7.7,20.6-7.7h36.5c8.1,0,14.9,2.6,20.6,7.7
			c5.7,5.1,8.5,11.2,8.5,18.2v106.6c0,4-2.2,6-6.7,6h-25.7c-4.5,0-6.7-2-6.7-6V94.5c0-2.7-1.5-4-4.5-4h-7.4c-3,0-4.5,1.3-4.5,4v93.7
			c0,4-2.2,6-6.7,6h-25.7C861.1,194.2,858.9,192.2,858.9,188.2z"/>
	</g>
</g>
</svg>
