<?xml version="1.0" encoding="utf-8"?>
<!-- Generator: Adobe Illustrator 21.0.0, SVG Export Plug-In . SVG Version: 6.00 Build 0)  -->
<!DOCTYPE svg PUBLIC "-//W3C//DTD SVG 1.1//EN" "http://www.w3.org/Graphics/SVG/1.1/DTD/svg11.dtd">
<svg version="1.1" id="Layer_1" xmlns="http://www.w3.org/2000/svg" xmlns:xlink="http://www.w3.org/1999/xlink" x="0px" y="0px"
	 viewBox="0 0 1500 1500" enable-background="new 0 0 1500 1500" xml:space="preserve">
<g>
	<g>
		<path fill="#9E5C26" d="M826.4,883.8l9.6,14.7c9.4,14.4,14.4,31.2,14.4,48.4c0,26.9-12.4,52.1-32.9,68.8c4.1,8.7,7.6,18.4,10.4,29
			c52-31.1,104.5-98.1,146.7-188.2c21.9-46.7,39.7-97.3,51.9-145.4c-3.5,3.6-7.3,7-11.5,10c-16,11.4-36.9,17.9-56.5,21.6
			c-19.9,3.8-41,3.1-61.4,1.5c-44.2-3.5-72.1-30.1-89.3-68.9c-8.6-19.5-15.4-39.9-22-60.2c-3.4-10.5-7.9-16.6-20.1-17.4
			c-1.4-0.1-2.6-0.1-3.9,0v306.1c17.2,0,33.7-4,48.9-12L826.4,883.8z"/>
		<path fill="#9E5C26" d="M815.8,540.6c73.5-15,147.6-14.5,221.7-11.7c-14.4-59.2-51.6-113.7-113.9-148c-0.9,5.8-1.7,11.5-2.4,17.2
			l0,0.4c-1.1,8.8-9.1,15-17.9,13.8c-8.3-1.1-14.3-8.4-13.9-16.7c0.5-10.1,1.2-19.9,2.1-29.7c-36.3-14.1-79.3-22.2-129.5-22.2v203.6
			C780.1,547.7,798,544.3,815.8,540.6z"/>
		<g>
			<path fill="#CB7A29" d="M776.9,344.1c3.9,0.1,7.8,0.3,11.6,0.5C784.6,344.4,780.8,344.2,776.9,344.1z"/>
			<path fill="#CB7A29" d="M788.6,344.6c4.1,0.3,8.2,0.6,12.2,0.9C796.8,345.2,792.7,344.9,788.6,344.6z"/>
			<path fill="#CB7A29" d="M795.5,544.5c-4.4,0.7-8.8,1.4-13.2,1.9C786.7,545.8,791.1,545.2,795.5,544.5z"/>
			<path fill="#CB7A29" d="M796,544.4c4.2-0.7,8.4-1.5,12.6-2.3C804.4,542.9,800.2,543.7,796,544.4z"/>
			<path fill="#CB7A29" d="M813.9,347L813.9,347c-3.8-0.5-7.7-0.9-11.6-1.3C806.2,346.1,810.1,346.5,813.9,347z"/>
			<path fill="#CB7A29" d="M761.8,343.8c4.1,0,8.2,0.1,12.2,0.2C770,343.9,766,343.8,761.8,343.8z"/>
			<path fill="#CB7A29" d="M761.8,597.8c0.6,0,1.2-0.1,1.9-0.1c-11.4,0-17.5,5.6-21.2,15.6c-6.5,17.5-12.5,35.3-19.2,52.8
				c-13.4,35-35,63.8-72.4,72.9c-23.7,5.8-49.4,5.6-74.1,4.6c-35.1-1.4-62.1-14.6-81-38.3c0.1,1,0.2,2.1,0.4,3
				c32.6,131,108.7,282.7,199.5,336.3c2.8-10.6,6.3-20.4,10.4-29.1c-20.4-16.6-32.9-41.9-32.9-68.8c0-17.2,5-34,14.4-48.4l9.6-14.7
				l15.6,8.1c15.2,7.9,31.7,12,48.9,12V597.8z"/>
			<path fill="#CB7A29" d="M741.6,545.7c13.8,2.4,27.3,2.2,40.7,0.7c-6.7,0.8-13.5,1.2-20.4,1.1V343.8c-54.7,0-100.9,9.6-139.1,26.1
				c0.6,6,1.1,12.1,1.5,18.2c0.6,8.3-5.6,15.4-13.9,16c-7.7,0.6-14.5-4.9-15.8-12.3l-0.1-0.5c-0.4-2.1-0.8-4.3-1.2-6.4
				c-57.9,34.2-92.8,86.4-106.9,143c9.4-0.8,18.6-1.6,27.9-2.5C591.4,517.6,666.5,532.4,741.6,545.7z"/>
			<path fill="#CB7A29" d="M826.7,707C826.6,707,826.6,707,826.7,707C826.6,707,826.6,707,826.7,707z"/>
			<path fill="#CB7A29" d="M815.8,540.6c-2,0.4-3.9,0.8-5.9,1.2C811.8,541.4,813.8,541,815.8,540.6z"/>
			<path fill="#CB7A29" d="M822.4,701.3c0,0-0.1-0.1-0.1-0.1C822.3,701.3,822.4,701.3,822.4,701.3z"/>
			<path fill="#CB7A29" d="M767.1,903.7c1.6-0.1,3.2-0.2,4.9-0.4l0,0C770.4,903.5,768.7,903.6,767.1,903.7z"/>
			<path fill="#CB7A29" d="M815.8,540.6c4-0.8,8-1.6,12.1-2.3l0,0C823.8,539.1,819.8,539.8,815.8,540.6z"/>
			<path fill="#CB7A29" d="M811.1,682.3c0-0.1-0.1-0.1-0.1-0.2C811.1,682.2,811.1,682.3,811.1,682.3z"/>
			<path fill="#CB7A29" d="M814.6,689c0-0.1-0.1-0.1-0.1-0.2C814.6,688.8,814.6,688.9,814.6,689z"/>
			<path fill="#CB7A29" d="M818.4,695.3c0-0.1-0.1-0.1-0.1-0.2C818.3,695.2,818.4,695.3,818.4,695.3z"/>
		</g>
		<path fill="#232323" d="M1322.7,267.6l-0.5-0.2c-22.8-6.6-45.4-16.1-67.4-27.3c-21.9-11.5-43.2-24.7-64.1-38.9
			c-20.7-14.4-40.8-29.8-60.4-45.9c-9.8-8.1-19.4-16.4-28.8-24.9c-2.9-2.6-5.7-5.2-8.6-7.8c0,0,0-0.1,0-0.1
			c4.1-15.8-5.4-32-21.3-36.1l-0.4-0.1c-9.6-2.5-20-3.9-30.7-3.6c-10.7,0.3-21.5,2.5-31.4,6.4c-9.9,3.9-18.8,9.3-26.4,15.4
			c-7.7,6.1-14.1,12.9-19.8,19.9c-11.3,14-19.6,28.8-26.6,43.7c-6.9,14.9-12.4,29.9-17.1,45c-9.3,30.2-15.6,60.5-20.5,90.8
			c-1.2,7.7-2.3,15.3-3.3,23c-40.7-14.5-86.1-22.2-133.8-22.2c-51.7,0-100.6,9-143.9,26c-0.9-5.9-1.9-11.9-2.9-17.8
			c-3.2-18.2-7.1-36.5-12.1-54.6c46.6-10.3,99.9-15.6,159-15.6c43.2,0,84.1,2.9,121.5,8.7l6.7,1l0.9-6.7
			c2.3-16.5,5.7-30.9,10.4-43.9l2.7-7.3l-7.6-1.5c-40.5-7.7-84.5-11.5-134.5-11.5c-68.7,0-127.3,7.2-178.2,21.9
			c-5.7-12.8-12.6-25.4-21.4-37.8c-8.4-11.7-18.8-23.3-32.9-32.5c-3.7-2.2-7.4-4.3-11.2-6.3c-4-1.7-8.1-3.4-12.3-4.9
			c-4.3-1.1-8.7-2.2-13.1-3.1c-4.4-0.5-8.9-0.9-13.4-1.1c-1.6-0.1-3.3-0.1-4.9,0.1c-15.4,1.6-26.8,14.7-26.6,29.9
			c-18.8,14.7-38.6,28.8-58.5,42.2c-21.5,14.3-43.4,27.8-65.9,39.8c-11.2,6-22.6,11.6-34,16.7c-11.4,5.1-23,9.7-34.6,13.4
			c-11.6,3.7-23.2,6.6-34.4,8c-11.2,1.4-21.9,1.2-30.8-1.1c-0.5-0.1-1.1-0.3-1.7-0.4c-12.7-2.2-24.8,6.3-27,18.9
			c-2.2,12.7,6.2,24.8,18.9,27l0.3,0c16.9,3,32.7,1.7,47.4-1.1c14.6-2.9,28.3-7.3,41.4-12.4c13.1-5.1,25.6-11,37.6-17.4
			c12.1-6.4,23.8-13.1,35.2-20.3c22.9-14.2,44.7-29.7,65.8-45.8c18.2-14,35.8-28.3,53.1-43.6c5.6,3.9,12.6,5.9,20,5.2l0.1,0
			c6.7-0.7,13,0.3,20,3.8c7,3.5,14.2,9.6,20.9,17.1c6.7,7.5,12.9,16.5,18.5,26c5.6,9.6,10.6,19.9,15.3,30.5
			c9.2,21.3,16.9,43.8,23.3,66.8c2.3,8.1,4.4,16.3,6.4,24.6c-17.7,9.3-34.2,20.2-49.2,32.5c-48.2,39.6-78.8,91.7-90.4,152.6
			c-5.2,0.4-10.5,0.8-15.8,1.2c1,13-0.4,27.2,6.6,38.1c-11.1-0.3-20.6,3.7-27.3,7.9c-0.3-0.3-0.6-0.7-0.8-0.9l-1.3-1.2
			c-15.9-12.9-38,3.3-44.4,8.6l-2.3,1.9l-6.7,14.3c0.4-85.9,23.2-164.3,65.7-224.2c25.3-35.6,56.9-65,91.8-85.3
			c0.1-0.1,7.9-5.1,23.9-11.9l5.9-2.5l-2.3-6c-5.1-13.1-10.4-25-16.3-36.6l-3-6l-5.9,3.1c-17.9,9.3-34.4,20.1-49.2,32
			c-67.4,54.2-114.6,132.8-136.5,227.2c-7.5,32.2-11.7,63.7-12.6,93.7c-1.4,46.1-13.3,64.8-13.4,64.9l-1.2,1.8l0.1,2.1
			c0.7,28.8,18.4,174.6,20.4,188.3c2.6,17.5,21,39.8,37.8,39.8c1.7,0,3.3-0.2,4.7-0.6c2.8,11.2,9.3,17.2,15,19.4
			c3.6,1.6,24.1,10.7,38.2,14.9c4.7,1.4,8.9,2,12.7,2c13.6,0,21.2-7.3,22.2-8.3l2.5-2.5l0.4-1.5c9.5,2.3,23.7,2.3,40.1-8.9
			c7.6-5.2,11.6-18.8,13.2-36.2c2,4.5,4.1,9,6.1,13.5c30.6,65.4,95.8,180.7,188.5,218.5l22.9,9.3l3.6-24.5
			c3.4-23,10.4-43.3,19.1-55.8l13.2-18.8l-20.7-9.9c-17.2-8.2-28.4-25.8-28.4-44.9c0-4.2,0.5-8.4,1.6-12.4
			c30.9,10.9,65.5,10.9,96.3,0c1,4,1.6,8.2,1.6,12.4c0,19-11.1,36.6-28.4,44.9l-20.7,9.9l13.2,18.8c8.7,12.5,15.7,32.8,19.1,55.8
			l3.6,24.5l22.9-9.3c92.7-37.7,157.9-153.1,188.5-218.5c2.1-4.5,4.1-9,6.1-13.5c1.7,17.4,5.6,31,13.2,36.2
			c16.4,11.2,30.7,11.2,40.1,8.9l0.4,1.5l2.5,2.5c1,1,8.6,8.3,22.2,8.3c3.8,0,8-0.6,12.7-2c14.1-4.2,34.6-13.3,38.2-14.9
			c5.7-2.2,12.2-8.2,15-19.4c1.5,0.4,3.1,0.6,4.7,0.6c16.8,0,35.2-22.3,37.8-39.8c2-13.6,19.7-159.3,20.4-188.3l0-2.1l-1.1-1.7
			c-0.1-0.2-12.1-18.8-13.4-65c-0.9-30-5.1-61.5-12.6-93.7c-21.9-94.4-69.2-173-136.5-227.2c-25.5-20.6-56-37.4-90.8-50.2
			c3.5-7.8,7.2-15.4,11.3-22.7c6.6-11.9,14.2-22.8,22.5-31.6c8.3-8.8,17.3-14.9,25.7-17.2c8.4-2.4,16.7-1.8,26.4,1.5
			c0.7,0.2,1.5,0.5,2.2,0.7c4.4,1.1,8.9,1.2,13.1,0.4c3.1,3.2,6.2,6.4,9.4,9.5c9.3,9.3,18.7,18.4,28.4,27.3
			c19.3,17.8,39.4,35,60.3,51.2c21.1,16.1,43,31.3,66.1,45.1c23.4,13.5,47.9,25.5,74.3,34.7c0.4,0.1,0.8,0.3,1.2,0.4
			c12.4,3.6,25.3-3.5,28.9-15.9C1342.2,284.2,1335.1,271.2,1322.7,267.6z M937,311.6c3.7-15.5,7.8-30.8,12.4-45.8
			c43.1,12.4,63.1,25.4,63.6,25.7c34.6,20.1,66.2,49.5,91.5,85.1c42.6,60.1,65.4,138.8,65.8,224.4l-6.8-14.4l-2.3-1.9
			c-6.4-5.3-28.5-21.4-44.6-8.4l-1.3,1.3c-0.2,0.2-0.4,0.4-0.6,0.7c-6.3-3.9-15.2-7.8-25.5-7.9c1.6-12.4,3.3-24.7,4.8-36.7
			c-1.8-0.9-2.5-1.7-3.3-1.7c-4.2-0.3-8.3-0.6-12.5-0.9C1066.6,470,1036,418,987.8,378.4c-17.2-14.2-36.5-26.4-57.3-36.6
			C932.5,331.7,934.7,321.6,937,311.6z M593.4,384.8c0.4,2.1,0.8,4.3,1.2,6.4l0.1,0.5c1.3,7.5,8.1,12.9,15.8,12.3
			c8.3-0.6,14.5-7.8,13.9-16c-0.4-6.1-1-12.2-1.5-18.2c38.2-16.5,84.4-26.1,139.1-26.1c50.2,0,93.3,8.1,129.5,22.2
			c-0.9,9.8-1.6,19.6-2.1,29.7c-0.4,8.2,5.6,15.6,13.9,16.7c8.8,1.1,16.8-5.1,17.9-13.8l0-0.4c0.7-5.7,1.6-11.5,2.4-17.2
			c62.3,34.3,99.4,88.8,113.9,148c-74.2-2.9-148.2-3.4-221.7,11.7c-24.2,5-48.7,9.5-74.2,5c-75.1-13.2-150.2-28-227.3-20.3
			c-9.2,0.9-18.5,1.7-27.9,2.5C500.6,471.3,535.4,419.1,593.4,384.8z M429.3,890.4c-1.3,0-3-0.2-5.1-0.8
			c-11.9-3.6-30.2-11.6-34.5-13.5c-0.2-0.4-0.5-1.1-0.7-2.2c-1.7-7.4-3.4-17.2-4-20.5c0.2-11.8,0.5-94.8-22.7-208.8l19.3-41
			c2.9-2,6.4-4,8.9-5c4.3,9.4,15.9,42.7,26.9,145.4C427.8,841.3,429.2,878,429.3,890.4C429.3,890.4,429.3,890.4,429.3,890.4z
			 M974.6,856.5c-42.2,90.2-94.6,157.1-146.7,188.2c-2.8-10.6-6.3-20.3-10.4-29c20.4-16.6,32.9-41.9,32.9-68.8
			c0-17.2-5-34-14.4-48.4l-9.6-14.7l-15.6,8.1c-15.2,7.9-31.7,12-48.9,12c-17.2,0-33.7-4-48.9-12l-15.6-8.1l-9.6,14.7
			c-9.4,14.4-14.4,31.2-14.4,48.4c0,26.9,12.5,52.1,32.9,68.8c-4.1,8.7-7.6,18.5-10.4,29.1C605,991.1,528.8,839.5,496.2,708.5
			c-0.1-1-0.2-2-0.4-3c18.8,23.7,45.9,36.9,81,38.3c24.7,1,50.4,1.2,74.1-4.6c37.5-9.1,59.1-37.9,72.4-72.9
			c6.7-17.5,12.7-35.2,19.2-52.8c3.9-10.6,10.5-16.3,23.2-15.6c12.2,0.7,16.7,6.8,20.1,17.4c6.6,20.3,13.4,40.7,22,60.2
			c17.2,38.8,45.1,65.4,89.3,68.9c20.4,1.6,41.5,2.3,61.4-1.5c19.6-3.7,40.5-10.2,56.5-21.6c4.2-3,8-6.4,11.5-10
			C1014.3,759.2,996.5,809.8,974.6,856.5z M1138.7,853.3c-0.6,3.3-2.3,13.1-4,20.5c-0.3,1.1-0.5,1.8-0.7,2.2
			c-4.3,1.9-22.6,9.9-34.5,13.5c-2.1,0.6-3.7,0.8-5,0.9c0-13.2,1.5-50.1,11.8-146.6c11.1-104,22.9-136.8,26.8-145.4
			c2.5,0.9,6,2.9,9,5.1l19.3,41C1138.2,758.5,1138.6,841.5,1138.7,853.3z"/>
	</g>
	<g>
		<path fill="#232323" d="M274.7,1343.3c0,5.2-2.9,7.8-8.7,7.8h-48.9c-3.9,0-5.8,1.7-5.8,5.2v53.3c0,5.2-2.9,7.8-8.7,7.8h-33.4
			c-5.8,0-8.7-2.6-8.7-7.8v-138.6c0-9.1,3.7-17,11.1-23.7c7.4-6.6,16.3-10,26.8-10H266c5.8,0,8.7,2.6,8.7,7.8v29.7
			c0,5.2-2.9,7.8-8.7,7.8h-48.9c-3.9,0-5.8,1.7-5.8,5.2v12.9c0,3.4,1.9,5.2,5.8,5.2H266c5.8,0,8.7,2.6,8.7,7.8V1343.3z"/>
		<path fill="#232323" d="M411.7,1245v138.6c0,9.3-3.7,17.2-11.1,23.8c-7.4,6.6-16.3,9.8-26.8,9.8h-47.4c-10.5,0-19.4-3.3-26.8-9.8
			c-7.4-6.5-11.1-14.5-11.1-23.8V1245c0-5.2,2.9-7.8,8.7-7.8h33.4c5.8,0,8.7,2.6,8.7,7.8v121.8c0,3.4,1.9,5.2,5.8,5.2h9.6
			c3.9,0,5.8-1.7,5.8-5.2V1245c0-5.2,2.9-7.8,8.7-7.8H403C408.8,1237.3,411.7,1239.8,411.7,1245z"/>
		<path fill="#232323" d="M425.7,1409.4v-138.6c0-9.1,3.7-17,11.1-23.7c7.4-6.6,16.3-10,26.8-10h47.4c10.5,0,19.4,3.3,26.8,10
			c7.4,6.6,11.1,14.5,11.1,23.7v138.6c0,5.2-2.9,7.8-8.7,7.8h-33.4c-5.8,0-8.7-2.6-8.7-7.8v-121.8c0-3.4-1.9-5.2-5.8-5.2h-9.6
			c-3.9,0-5.8,1.7-5.8,5.2v121.8c0,5.2-2.9,7.8-8.7,7.8h-33.4C428.6,1417.2,425.7,1414.6,425.7,1409.4z"/>
		<path fill="#232323" d="M656.9,1409.4c0,5.2-2.9,7.8-8.7,7.8h-47.7c-10.5,0-19.4-3.3-26.8-9.8c-7.4-6.5-11.1-14.5-11.1-23.8
			v-112.7c0-9.1,3.7-17,11.1-23.7c7.4-6.6,16.3-10,26.8-10h47.7c5.8,0,8.7,2.6,8.7,7.8v29.7c0,5.2-2.9,7.8-8.7,7.8h-28.8
			c-3.9,0-5.8,1.7-5.8,5.2v79.1c0,3.4,1.9,5.2,5.8,5.2h28.8c5.8,0,8.7,2.6,8.7,7.8V1409.4z"/>
		<path fill="#232323" d="M793.9,1409.4c0,5.2-2.9,7.8-8.7,7.8h-33.4c-5.8,0-8.7-2.6-8.7-7.8v-32.3c0-3.4-1.9-5.2-5.8-5.2h-9.6
			c-3.9,0-5.8,1.7-5.8,5.2v32.3c0,5.2-2.9,7.8-8.7,7.8h-33.4c-5.8,0-8.7-2.6-8.7-7.8v-152.8c0-5.3,2.1-9.9,6.4-13.7
			c4.3-3.8,9.4-5.7,15.4-5.7h79.4c6,0,11.1,1.9,15.4,5.7c4.3,3.8,6.4,8.4,6.4,13.7V1409.4z M743,1336v-48.3c0-3.5-1.9-5.2-5.8-5.2
			h-9.6c-3.9,0-5.8,1.7-5.8,5.2v48.3c0,3.5,1.9,5.2,5.8,5.2h9.6C741.1,1341.2,743,1339.5,743,1336z"/>
		<path fill="#232323" d="M928.9,1274.7c0,5.2-2.9,7.8-8.7,7.8h-20.7c-3.9,0-5.8,1.7-5.8,5.2v121.8c0,5.2-2.9,7.8-8.7,7.8h-33.4
			c-5.8,0-8.7-2.6-8.7-7.8v-121.7c0-3.4-1.9-5.2-5.8-5.2h-20.4c-5.8,0-8.7-2.6-8.7-7.8V1245c0-5.2,2.9-7.8,8.7-7.8h103.5
			c5.8,0,8.7,2.6,8.7,7.8V1274.7z"/>
		<path fill="#232323" d="M1065.6,1409.4c0,5.2-2.9,7.8-8.7,7.8h-33.4c-5.8,0-8.7-2.6-8.7-7.8v-49.4c0-3.4-1.9-5.2-5.8-5.2h-9.6
			c-3.9,0-5.8,1.7-5.8,5.2v49.4c0,5.2-2.9,7.8-8.7,7.8h-33.4c-5.8,0-8.7-2.6-8.7-7.8V1245c0-5.2,2.9-7.8,8.7-7.8h76.5
			c10.5,0,19.4,3.3,26.8,10c7.4,6.6,11.1,14.5,11.1,23.7v37c0,5.3-2.1,9.9-6.4,13.7c-4.3,3.8-9.4,5.7-15.4,5.7
			c6,0,11.1,1.9,15.4,5.7c4.3,3.8,6.4,8.4,6.4,13.7V1409.4z M1014.7,1307.3v-19.6c0-3.4-1.9-5.2-5.8-5.2h-9.6
			c-3.9,0-5.8,1.7-5.8,5.2v19.6c0,3.4,1.9,5.2,5.8,5.2h9.6C1012.7,1312.5,1014.7,1310.8,1014.7,1307.3z"/>
		<path fill="#232323" d="M1202.6,1383.6c0,9.3-3.7,17.2-11.1,23.8c-7.4,6.6-16.3,9.8-26.8,9.8h-47.4c-10.5,0-19.4-3.3-26.8-9.8
			c-7.4-6.5-11.1-14.5-11.1-23.8v-112.7c0-9.1,3.7-17,11.1-23.7c7.4-6.6,16.3-10,26.8-10h47.4c10.5,0,19.4,3.3,26.8,10
			c7.4,6.6,11.1,14.5,11.1,23.7V1383.6z M1151.7,1366.8v-79.1c0-3.4-1.9-5.2-5.8-5.2h-9.6c-3.9,0-5.8,1.7-5.8,5.2v79.1
			c0,3.4,1.9,5.2,5.8,5.2h9.6C1149.7,1372,1151.7,1370.2,1151.7,1366.8z"/>
		<path fill="#232323" d="M1216.5,1409.4v-138.6c0-9.1,3.7-17,11.1-23.7c7.4-6.6,16.3-10,26.8-10h47.4c10.5,0,19.4,3.3,26.8,10
			c7.4,6.6,11.1,14.5,11.1,23.7v138.6c0,5.2-2.9,7.8-8.7,7.8h-33.4c-5.8,0-8.7-2.6-8.7-7.8v-121.8c0-3.4-1.9-5.2-5.8-5.2h-9.6
			c-3.9,0-5.8,1.7-5.8,5.2v121.8c0,5.2-2.9,7.8-8.7,7.8h-33.4C1219.4,1417.2,1216.5,1414.6,1216.5,1409.4z"/>
	</g>
</g>
</svg>
