<?xml version="1.0" encoding="utf-8"?>
<!-- Generator: Adobe Illustrator 21.0.0, SVG Export Plug-In . SVG Version: 6.00 Build 0)  -->
<!DOCTYPE svg PUBLIC "-//W3C//DTD SVG 1.1//EN" "http://www.w3.org/Graphics/SVG/1.1/DTD/svg11.dtd">
<svg version="1.1" id="Layer_1" xmlns="http://www.w3.org/2000/svg" xmlns:xlink="http://www.w3.org/1999/xlink" x="0px" y="0px"
	 viewBox="0 0 200 200" enable-background="new 0 0 200 200" xml:space="preserve">
<path fill="#9E5C26" d="M109.7,141l1.2,1.9c1.2,1.8,1.8,4,1.8,6.1c0,3.4-1.6,6.6-4.2,8.7c0.5,1.1,1,2.3,1.3,3.7
	c6.6-3.9,13.3-12.4,18.6-23.9c2.8-5.9,5-12.4,6.6-18.5c-0.4,0.5-0.9,0.9-1.5,1.3c-2,1.4-4.7,2.3-7.2,2.7c-2.5,0.5-5.2,0.4-7.8,0.2
	c-5.6-0.4-9.2-3.8-11.3-8.7c-1.1-2.5-2-5.1-2.8-7.6c-0.4-1.3-1-2.1-2.6-2.2c-0.2,0-0.3,0-0.5,0v38.8c2.2,0,4.3-0.5,6.2-1.5
	L109.7,141z"/>
<path fill="#9E5C26" d="M108.3,97.4c9.3-1.9,18.7-1.8,28.1-1.5c-1.8-7.5-6.5-14.4-14.5-18.8c-0.1,0.7-0.2,1.5-0.3,2.2l0,0
	c-0.1,1.1-1.2,1.9-2.3,1.8c-1.1-0.1-1.8-1.1-1.8-2.1c0.1-1.3,0.2-2.5,0.3-3.8c-4.6-1.8-10.1-2.8-16.4-2.8v25.8
	C103.8,98.3,106.1,97.9,108.3,97.4z"/>
<g>
	<path fill="#CB7A29" d="M103.4,72.5c0.5,0,1,0,1.5,0.1C104.4,72.5,103.9,72.5,103.4,72.5z"/>
	<path fill="#CB7A29" d="M104.9,72.5c0.5,0,1,0.1,1.5,0.1C105.9,72.6,105.4,72.6,104.9,72.5z"/>
	<path fill="#CB7A29" d="M105.8,97.9c-0.6,0.1-1.1,0.2-1.7,0.2C104.7,98.1,105.2,98,105.8,97.9z"/>
	<path fill="#CB7A29" d="M105.8,97.9c0.5-0.1,1.1-0.2,1.6-0.3C106.9,97.7,106.4,97.8,105.8,97.9z"/>
	<path fill="#CB7A29" d="M108.1,72.8L108.1,72.8c-0.5-0.1-1-0.1-1.5-0.2C107.1,72.7,107.6,72.8,108.1,72.8z"/>
	<path fill="#CB7A29" d="M101.5,72.4c0.5,0,1,0,1.5,0C102.5,72.4,102,72.4,101.5,72.4z"/>
	<path fill="#CB7A29" d="M101.5,104.7c0.1,0,0.2,0,0.2,0c-1.4,0-2.2,0.7-2.7,2c-0.8,2.2-1.6,4.5-2.4,6.7c-1.7,4.4-4.4,8.1-9.2,9.3
		c-3,0.7-6.3,0.7-9.4,0.6c-4.5-0.2-7.9-1.8-10.3-4.9c0,0.1,0,0.3,0,0.4c4.1,16.6,13.8,35.9,25.3,42.7c0.4-1.3,0.8-2.6,1.3-3.7
		c-2.6-2.1-4.2-5.3-4.2-8.7c0-2.2,0.6-4.3,1.8-6.1l1.2-1.9l2,1c1.9,1,4,1.5,6.2,1.5V104.7z"/>
	<path fill="#CB7A29" d="M98.9,98c1.8,0.3,3.5,0.3,5.2,0.1c-0.9,0.1-1.7,0.2-2.6,0.1V72.4c-6.9,0-12.8,1.2-17.7,3.3
		c0.1,0.8,0.1,1.5,0.2,2.3c0.1,1-0.7,2-1.8,2c-1,0.1-1.8-0.6-2-1.6l0-0.1c0-0.3-0.1-0.5-0.1-0.8c-7.4,4.3-11.8,11-13.6,18.2
		c1.2-0.1,2.4-0.2,3.5-0.3C79.9,94.5,89.4,96.4,98.9,98z"/>
	<path fill="#CB7A29" d="M109.7,118.5C109.7,118.5,109.7,118.5,109.7,118.5C109.7,118.5,109.7,118.5,109.7,118.5z"/>
	<path fill="#CB7A29" d="M108.3,97.4c-0.2,0.1-0.5,0.1-0.7,0.2C107.9,97.5,108.1,97.5,108.3,97.4z"/>
	<path fill="#CB7A29" d="M109.2,117.8C109.2,117.8,109.2,117.8,109.2,117.8C109.2,117.8,109.2,117.8,109.2,117.8z"/>
	<path fill="#CB7A29" d="M102.2,143.5c0.2,0,0.4,0,0.6,0l0,0C102.6,143.5,102.4,143.5,102.2,143.5z"/>
	<path fill="#CB7A29" d="M108.3,97.4c0.5-0.1,1-0.2,1.5-0.3l0,0C109.4,97.2,108.9,97.3,108.3,97.4z"/>
	<path fill="#CB7A29" d="M107.8,115.4C107.8,115.4,107.8,115.4,107.8,115.4C107.8,115.4,107.8,115.4,107.8,115.4z"/>
	<path fill="#CB7A29" d="M108.2,116.2C108.2,116.2,108.2,116.2,108.2,116.2C108.2,116.2,108.2,116.2,108.2,116.2z"/>
	<path fill="#CB7A29" d="M108.7,117C108.7,117,108.7,117,108.7,117C108.7,117,108.7,117,108.7,117z"/>
</g>
<path fill="#232323" d="M172.7,62.7L172.7,62.7c-3-0.9-5.8-2.1-8.6-3.5c-2.8-1.5-5.5-3.1-8.1-4.9c-2.6-1.8-5.2-3.8-7.7-5.8
	c-1.2-1-2.5-2.1-3.7-3.2c-0.4-0.3-0.7-0.7-1.1-1c0,0,0,0,0,0c0.5-2-0.7-4.1-2.7-4.6l0,0c-1.2-0.3-2.5-0.5-3.9-0.5
	c-1.4,0-2.7,0.3-4,0.8c-1.3,0.5-2.4,1.2-3.4,2c-1,0.8-1.8,1.6-2.5,2.5c-1.4,1.8-2.5,3.7-3.4,5.5c-0.9,1.9-1.6,3.8-2.2,5.7
	c-1.2,3.8-2,7.7-2.6,11.5c-0.2,1-0.3,1.9-0.4,2.9c-5.2-1.8-10.9-2.8-17-2.8c-6.6,0-12.8,1.1-18.3,3.3c-0.1-0.8-0.2-1.5-0.4-2.3
	c-0.4-2.3-0.9-4.6-1.5-6.9c5.9-1.3,12.7-2,20.2-2c5.5,0,10.7,0.4,15.4,1.1l0.8,0.1l0.1-0.8c0.3-2.1,0.7-3.9,1.3-5.6l0.3-0.9l-1-0.2
	c-5.1-1-10.7-1.5-17.1-1.5c-8.7,0-16.2,0.9-22.6,2.8c-0.7-1.6-1.6-3.2-2.7-4.8c-1.1-1.5-2.4-3-4.2-4.1c-0.5-0.3-0.9-0.5-1.4-0.8
	c-0.5-0.2-1-0.4-1.6-0.6c-0.5-0.1-1.1-0.3-1.7-0.4c-0.6-0.1-1.1-0.1-1.7-0.1c-0.2,0-0.4,0-0.6,0c-2,0.2-3.4,1.9-3.4,3.8
	c-2.4,1.9-4.9,3.7-7.4,5.4c-2.7,1.8-5.5,3.5-8.4,5c-1.4,0.8-2.9,1.5-4.3,2.1c-1.5,0.7-2.9,1.2-4.4,1.7c-1.5,0.5-2.9,0.8-4.4,1
	c-1.4,0.2-2.8,0.1-3.9-0.1c-0.1,0-0.1,0-0.2,0c-1.6-0.3-3.1,0.8-3.4,2.4c-0.3,1.6,0.8,3.1,2.4,3.4l0,0c2.1,0.4,4.2,0.2,6-0.1
	c1.9-0.4,3.6-0.9,5.3-1.6c1.7-0.6,3.2-1.4,4.8-2.2c1.5-0.8,3-1.7,4.5-2.6c2.9-1.8,5.7-3.8,8.4-5.8c2.3-1.8,4.5-3.6,6.7-5.5
	c0.7,0.5,1.6,0.8,2.5,0.7l0,0c0.8-0.1,1.6,0,2.5,0.5c0.9,0.4,1.8,1.2,2.6,2.2c0.8,1,1.6,2.1,2.3,3.3c0.7,1.2,1.3,2.5,1.9,3.9
	c1.2,2.7,2.1,5.6,3,8.5c0.3,1,0.6,2.1,0.8,3.1c-2.3,1.2-4.3,2.6-6.2,4.1c-6.1,5-10,11.6-11.5,19.4c-0.7,0-1.3,0.1-2,0.2
	c0.1,1.6-0.1,3.4,0.8,4.8c-1.4,0-2.6,0.5-3.5,1c0,0-0.1-0.1-0.1-0.1l-0.2-0.2c-2-1.6-4.8,0.4-5.6,1.1l-0.3,0.2l-0.9,1.8
	c0.1-10.9,2.9-20.9,8.3-28.5c3.2-4.5,7.2-8.2,11.7-10.8c0,0,1-0.7,3-1.5l0.8-0.3l-0.3-0.8c-0.6-1.7-1.3-3.2-2.1-4.6l-0.4-0.8
	l-0.8,0.4c-2.3,1.2-4.4,2.6-6.2,4.1c-8.6,6.9-14.5,16.9-17.3,28.8c-0.9,4.1-1.5,8.1-1.6,11.9c-0.2,5.9-1.7,8.2-1.7,8.2l-0.2,0.2
	l0,0.3c0.1,3.7,2.3,22.2,2.6,23.9c0.3,2.2,2.7,5,4.8,5c0.2,0,0.4,0,0.6-0.1c0.4,1.4,1.2,2.2,1.9,2.5c0.5,0.2,3.1,1.4,4.8,1.9
	c0.6,0.2,1.1,0.2,1.6,0.2c1.7,0,2.7-0.9,2.8-1.1l0.3-0.3l0.1-0.2c1.2,0.3,3,0.3,5.1-1.1c1-0.7,1.5-2.4,1.7-4.6
	c0.3,0.6,0.5,1.1,0.8,1.7c3.9,8.3,12.2,22.9,23.9,27.7l2.9,1.2l0.5-3.1c0.4-2.9,1.3-5.5,2.4-7.1l1.7-2.4l-2.6-1.3
	c-2.2-1-3.6-3.3-3.6-5.7c0-0.5,0.1-1.1,0.2-1.6c3.9,1.4,8.3,1.4,12.2,0c0.1,0.5,0.2,1,0.2,1.6c0,2.4-1.4,4.6-3.6,5.7l-2.6,1.3
	l1.7,2.4c1.1,1.6,2,4.2,2.4,7.1l0.5,3.1l2.9-1.2c11.8-4.8,20-19.4,23.9-27.7c0.3-0.6,0.5-1.1,0.8-1.7c0.2,2.2,0.7,3.9,1.7,4.6
	c2.1,1.4,3.9,1.4,5.1,1.1l0.1,0.2l0.3,0.3c0.1,0.1,1.1,1.1,2.8,1.1c0.5,0,1-0.1,1.6-0.2c1.8-0.5,4.4-1.7,4.8-1.9
	c0.7-0.3,1.5-1,1.9-2.5c0.2,0.1,0.4,0.1,0.6,0.1c2.1,0,4.5-2.8,4.8-5c0.3-1.7,2.5-20.2,2.6-23.9l0-0.3l-0.1-0.2c0,0-1.5-2.4-1.7-8.2
	c-0.1-3.8-0.6-7.8-1.6-11.9c-2.8-12-8.8-22-17.3-28.8c-3.2-2.6-7.1-4.7-11.5-6.4c0.4-1,0.9-2,1.4-2.9c0.8-1.5,1.8-2.9,2.9-4
	c1.1-1.1,2.2-1.9,3.3-2.2c1.1-0.3,2.1-0.2,3.4,0.2c0.1,0,0.2,0.1,0.3,0.1c0.6,0.1,1.1,0.2,1.7,0c0.4,0.4,0.8,0.8,1.2,1.2
	c1.2,1.2,2.4,2.3,3.6,3.5c2.5,2.3,5,4.4,7.7,6.5c2.7,2,5.5,4,8.4,5.7c3,1.7,6.1,3.2,9.4,4.4c0,0,0.1,0,0.1,0c1.6,0.5,3.2-0.4,3.7-2
	C175.2,64.8,174.3,63.2,172.7,62.7z M123.7,68.3c0.5-2,1-3.9,1.6-5.8c5.5,1.6,8,3.2,8.1,3.3c4.4,2.6,8.4,6.3,11.6,10.8
	c5.4,7.6,8.3,17.6,8.4,28.5l-0.9-1.8l-0.3-0.2c-0.8-0.7-3.6-2.7-5.7-1.1l-0.2,0.2c0,0-0.1,0.1-0.1,0.1c-0.8-0.5-1.9-1-3.2-1
	c0.2-1.6,0.4-3.1,0.6-4.7c-0.2-0.1-0.3-0.2-0.4-0.2c-0.5,0-1.1-0.1-1.6-0.1c-1.5-7.7-5.4-14.3-11.5-19.4c-2.2-1.8-4.6-3.3-7.3-4.6
	C123.2,70.9,123.4,69.6,123.7,68.3z M80.1,77.6c0,0.3,0.1,0.5,0.1,0.8l0,0.1c0.2,0.9,1,1.6,2,1.6c1-0.1,1.8-1,1.8-2
	c-0.1-0.8-0.1-1.5-0.2-2.3c4.8-2.1,10.7-3.3,17.7-3.3c6.4,0,11.8,1,16.4,2.8c-0.1,1.2-0.2,2.5-0.3,3.8c0,1,0.7,2,1.8,2.1
	c1.1,0.1,2.1-0.6,2.3-1.8l0,0c0.1-0.7,0.2-1.5,0.3-2.2c7.9,4.4,12.6,11.3,14.5,18.8c-9.4-0.4-18.8-0.4-28.1,1.5
	c-3.1,0.6-6.2,1.2-9.4,0.6c-9.5-1.7-19.1-3.6-28.8-2.6c-1.2,0.1-2.4,0.2-3.5,0.3C68.3,88.6,72.8,82,80.1,77.6z M59.3,141.8
	c-0.2,0-0.4,0-0.6-0.1c-1.5-0.5-3.8-1.5-4.4-1.7c0-0.1-0.1-0.1-0.1-0.3c-0.2-0.9-0.4-2.2-0.5-2.6c0-1.5,0.1-12-2.9-26.5l2.4-5.2
	c0.4-0.3,0.8-0.5,1.1-0.6c0.5,1.2,2,5.4,3.4,18.5C59.1,135.6,59.3,140.2,59.3,141.8C59.3,141.8,59.3,141.8,59.3,141.8z M128.5,137.5
	c-5.4,11.4-12,19.9-18.6,23.9c-0.4-1.3-0.8-2.6-1.3-3.7c2.6-2.1,4.2-5.3,4.2-8.7c0-2.2-0.6-4.3-1.8-6.1l-1.2-1.9l-2,1
	c-1.9,1-4,1.5-6.2,1.5c-2.2,0-4.3-0.5-6.2-1.5l-2-1l-1.2,1.9c-1.2,1.8-1.8,4-1.8,6.1c0,3.4,1.6,6.6,4.2,8.7c-0.5,1.1-1,2.3-1.3,3.7
	c-11.5-6.8-21.2-26.1-25.3-42.7c0-0.1,0-0.3,0-0.4c2.4,3,5.8,4.7,10.3,4.9c3.1,0.1,6.4,0.1,9.4-0.6c4.8-1.2,7.5-4.8,9.2-9.3
	c0.8-2.2,1.6-4.5,2.4-6.7c0.5-1.3,1.3-2.1,2.9-2c1.6,0.1,2.1,0.9,2.6,2.2c0.8,2.6,1.7,5.2,2.8,7.6c2.2,4.9,5.7,8.3,11.3,8.7
	c2.6,0.2,5.3,0.3,7.8-0.2c2.5-0.5,5.1-1.3,7.2-2.7c0.5-0.4,1-0.8,1.5-1.3C133.6,125.1,131.3,131.6,128.5,137.5z M149.3,137.1
	c-0.1,0.4-0.3,1.7-0.5,2.6c0,0.1-0.1,0.2-0.1,0.3c-0.5,0.2-2.9,1.3-4.4,1.7c-0.3,0.1-0.5,0.1-0.6,0.1c0-1.7,0.2-6.4,1.5-18.6
	c1.4-13.2,2.9-17.4,3.4-18.5c0.3,0.1,0.8,0.4,1.1,0.6l2.4,5.2C149.3,125.1,149.3,135.6,149.3,137.1z"/>
</svg>
